# ProBuilder 6.0.9
# https://unity3d.com/unity/features/worldbuilding/probuilder
# 7/29/2026 1:03:20 PM

mtllib ./torus05.mtl
o torus05

g Torus
v -0.5 0 0
v -0.4984776 0.009567087 0
v -0.4941421 0.01767767 0
v -0.4876537 0.02309699 0
v -0.48 0.025 0
v -0.4723463 0.02309699 0
v -0.4658579 0.01767767 0
v -0.4615224 0.009567087 0
v -0.46 -2.185569E-09 0
v -0.4615224 -0.009567086 0
v -0.4658579 -0.01767767 0
v -0.4723463 -0.02309699 0
v -0.48 -0.025 0
v -0.4876537 -0.02309699 0
v -0.4941421 -0.01767767 0
v -0.4984776 -0.009567086 0
v -0.4829629 0 -0.1294095
v -0.4814924 0.009567087 -0.1290155
v -0.4773046 0.01767767 -0.1278934
v -0.4710373 0.02309699 -0.1262141
v -0.4636444 0.025 -0.1242331
v -0.4562515 0.02309699 -0.1222522
v -0.4499841 0.01767767 -0.1205729
v -0.4457964 0.009567087 -0.1194508
v -0.4443259 -2.185569E-09 -0.1190568
v -0.4457964 -0.009567086 -0.1194508
v -0.4499841 -0.01767767 -0.1205729
v -0.4562515 -0.02309699 -0.1222522
v -0.4636444 -0.025 -0.1242331
v -0.4710373 -0.02309699 -0.1262141
v -0.4773046 -0.01767767 -0.1278934
v -0.4814924 -0.009567086 -0.1290155
v -0.4330127 0 -0.25
v -0.4316942 0.009567087 -0.2492388
v -0.4279396 0.01767767 -0.2470711
v -0.4223205 0.02309699 -0.2438268
v -0.4156922 0.025 -0.24
v -0.4090639 0.02309699 -0.2361732
v -0.4034447 0.01767767 -0.2329289
v -0.3996901 0.009567087 -0.2307612
v -0.3983717 -2.185569E-09 -0.23
v -0.3996901 -0.009567086 -0.2307612
v -0.4034447 -0.01767767 -0.2329289
v -0.4090639 -0.02309699 -0.2361732
v -0.4156922 -0.025 -0.24
v -0.4223205 -0.02309699 -0.2438268
v -0.4279396 -0.01767767 -0.2470711
v -0.4316942 -0.009567086 -0.2492388
v -0.3535534 0 -0.3535534
v -0.3524769 0.009567087 -0.3524769
v -0.3494112 0.01767767 -0.3494112
v -0.3448232 0.02309699 -0.3448232
v -0.3394112 0.025 -0.3394112
v -0.3339993 0.02309699 -0.3339993
v -0.3294112 0.01767767 -0.3294112
v -0.3263456 0.009567087 -0.3263456
v -0.3252691 -2.185569E-09 -0.3252691
v -0.3263456 -0.009567086 -0.3263456
v -0.3294112 -0.01767767 -0.3294112
v -0.3339993 -0.02309699 -0.3339993
v -0.3394112 -0.025 -0.3394112
v -0.3448232 -0.02309699 -0.3448232
v -0.3494112 -0.01767767 -0.3494112
v -0.3524769 -0.009567086 -0.3524769
v -0.25 0 -0.4330127
v -0.2492388 0.009567087 -0.4316943
v -0.247071 0.01767767 -0.4279397
v -0.2438268 0.02309699 -0.4223205
v -0.24 0.025 -0.4156922
v -0.2361732 0.02309699 -0.4090639
v -0.2329289 0.01767767 -0.4034448
v -0.2307612 0.009567087 -0.3996902
v -0.23 -2.185569E-09 -0.3983717
v -0.2307612 -0.009567086 -0.3996902
v -0.2329289 -0.01767767 -0.4034448
v -0.2361731 -0.02309699 -0.4090639
v -0.24 -0.025 -0.4156922
v -0.2438268 -0.02309699 -0.4223205
v -0.247071 -0.01767767 -0.4279397
v -0.2492388 -0.009567086 -0.4316943
v -0.1294095 0 -0.4829629
v -0.1290155 0.009567087 -0.4814924
v -0.1278934 0.01767767 -0.4773046
v -0.1262141 0.02309699 -0.4710373
v -0.1242331 0.025 -0.4636444
v -0.1222522 0.02309699 -0.4562515
v -0.1205729 0.01767767 -0.4499841
v -0.1194508 0.009567087 -0.4457964
v -0.1190568 -2.185569E-09 -0.4443259
v -0.1194508 -0.009567086 -0.4457964
v -0.1205729 -0.01767767 -0.4499841
v -0.1222522 -0.02309699 -0.4562515
v -0.1242331 -0.025 -0.4636444
v -0.1262141 -0.02309699 -0.4710373
v -0.1278934 -0.01767767 -0.4773046
v -0.1290155 -0.009567086 -0.4814924
v 1.978937E-08 0 -0.5
v 1.988012E-08 0.009567087 -0.4984776
v 2.013853E-08 0.01767767 -0.4941421
v 2.052527E-08 0.02309699 -0.4876536
v 2.098147E-08 0.025 -0.48
v 2.143766E-08 0.02309699 -0.4723463
v 2.18244E-08 0.01767767 -0.4658579
v 2.208282E-08 0.009567087 -0.4615224
v 2.217356E-08 -2.185569E-09 -0.46
v 2.208282E-08 -0.009567086 -0.4615224
v 2.18244E-08 -0.01767767 -0.4658579
v 2.143766E-08 -0.02309699 -0.4723463
v 2.098147E-08 -0.025 -0.48
v 2.052527E-08 -0.02309699 -0.4876537
v 2.013853E-08 -0.01767767 -0.4941421
v 1.988012E-08 -0.009567086 -0.4984776
v 0.1294095 0 -0.4829629
v 0.1290155 0.009567087 -0.4814924
v 0.1278934 0.01767767 -0.4773046
v 0.1262141 0.02309699 -0.4710373
v 0.1242331 0.025 -0.4636444
v 0.1222522 0.02309699 -0.4562515
v 0.1205729 0.01767767 -0.4499841
v 0.1194508 0.009567087 -0.4457964
v 0.1190568 -2.185569E-09 -0.4443259
v 0.1194508 -0.009567086 -0.4457964
v 0.1205729 -0.01767767 -0.4499841
v 0.1222522 -0.02309699 -0.4562515
v 0.1242331 -0.025 -0.4636444
v 0.1262141 -0.02309699 -0.4710373
v 0.1278934 -0.01767767 -0.4773046
v 0.1290155 -0.009567086 -0.4814924
v 0.25 0 -0.4330127
v 0.2492388 0.009567087 -0.4316942
v 0.2470711 0.01767767 -0.4279396
v 0.2438269 0.02309699 -0.4223205
v 0.24 0.025 -0.4156922
v 0.2361732 0.02309699 -0.4090639
v 0.232929 0.01767767 -0.4034447
v 0.2307612 0.009567087 -0.3996901
v 0.23 -2.185569E-09 -0.3983717
v 0.2307612 -0.009567086 -0.3996901
v 0.232929 -0.01767767 -0.4034447
v 0.2361732 -0.02309699 -0.4090639
v 0.24 -0.025 -0.4156922
v 0.2438269 -0.02309699 -0.4223205
v 0.2470711 -0.01767767 -0.4279396
v 0.2492388 -0.009567086 -0.4316942
v 0.3535534 0 -0.3535534
v 0.3524769 0.009567087 -0.3524769
v 0.3494112 0.01767767 -0.3494112
v 0.3448232 0.02309699 -0.3448232
v 0.3394112 0.025 -0.3394112
v 0.3339993 0.02309699 -0.3339993
v 0.3294112 0.01767767 -0.3294112
v 0.3263456 0.009567087 -0.3263456
v 0.3252691 -2.185569E-09 -0.3252691
v 0.3263456 -0.009567086 -0.3263456
v 0.3294112 -0.01767767 -0.3294112
v 0.3339993 -0.02309699 -0.3339993
v 0.3394112 -0.025 -0.3394112
v 0.3448232 -0.02309699 -0.3448232
v 0.3494112 -0.01767767 -0.3494112
v 0.3524769 -0.009567086 -0.3524769
v 0.4330127 0 -0.25
v 0.4316942 0.009567087 -0.2492388
v 0.4279396 0.01767767 -0.2470711
v 0.4223205 0.02309699 -0.2438269
v 0.4156922 0.025 -0.24
v 0.4090639 0.02309699 -0.2361732
v 0.4034447 0.01767767 -0.232929
v 0.3996901 0.009567087 -0.2307612
v 0.3983717 -2.185569E-09 -0.23
v 0.3996901 -0.009567086 -0.2307612
v 0.4034447 -0.01767767 -0.232929
v 0.4090639 -0.02309699 -0.2361732
v 0.4156922 -0.025 -0.24
v 0.4223205 -0.02309699 -0.2438269
v 0.4279396 -0.01767767 -0.2470711
v 0.4316942 -0.009567086 -0.2492388
v 0.4829629 0 -0.1294096
v 0.4814924 0.009567087 -0.1290155
v 0.4773046 0.01767767 -0.1278934
v 0.4710373 0.02309699 -0.1262141
v 0.4636444 0.025 -0.1242332
v 0.4562515 0.02309699 -0.1222523
v 0.4499841 0.01767767 -0.1205729
v 0.4457964 0.009567087 -0.1194508
v 0.4443259 -2.185569E-09 -0.1190568
v 0.4457964 -0.009567086 -0.1194508
v 0.4499841 -0.01767767 -0.1205729
v 0.4562515 -0.02309699 -0.1222523
v 0.4636444 -0.025 -0.1242332
v 0.4710373 -0.02309699 -0.1262141
v 0.4773046 -0.01767767 -0.1278934
v 0.4814924 -0.009567086 -0.1290155
v 0.5 0 4.021448E-08
v 0.4984776 0.009567087 4.034757E-08
v 0.4941421 0.01767767 4.072659E-08
v 0.4876537 0.02309699 4.129383E-08
v 0.48 0.025 4.196293E-08
v 0.4723463 0.02309699 4.263203E-08
v 0.4658579 0.01767767 4.319928E-08
v 0.4615224 0.009567087 4.357829E-08
v 0.46 -2.185569E-09 4.371138E-08
v 0.4615224 -0.009567086 4.357829E-08
v 0.4658579 -0.01767767 4.319928E-08
v 0.4723463 -0.02309699 4.263203E-08
v 0.48 -0.025 4.196293E-08
v 0.4876537 -0.02309699 4.129383E-08
v 0.4941421 -0.01767767 4.072659E-08
v 0.4984776 -0.009567086 4.034757E-08
v 0.4829629 0 0.1294095
v 0.4814924 0.009567087 0.1290155
v 0.4773046 0.01767767 0.1278934
v 0.4710373 0.02309699 0.1262141
v 0.4636444 0.025 0.1242331
v 0.4562515 0.02309699 0.1222522
v 0.4499841 0.01767767 0.1205729
v 0.4457964 0.009567087 0.1194508
v 0.4443259 -2.185569E-09 0.1190568
v 0.4457964 -0.009567086 0.1194508
v 0.4499841 -0.01767767 0.1205729
v 0.4562515 -0.02309699 0.1222522
v 0.4636444 -0.025 0.1242331
v 0.4710373 -0.02309699 0.1262141
v 0.4773046 -0.01767767 0.1278934
v 0.4814924 -0.009567086 0.1290155
v 0.4330127 0 0.25
v 0.4316942 0.009567087 0.2492388
v 0.4279396 0.01767767 0.247071
v 0.4223205 0.02309699 0.2438268
v 0.4156922 0.025 0.24
v 0.4090639 0.02309699 0.2361732
v 0.4034447 0.01767767 0.2329289
v 0.3996901 0.009567087 0.2307612
v 0.3983717 -2.185569E-09 0.23
v 0.3996901 -0.009567086 0.2307612
v 0.4034447 -0.01767767 0.2329289
v 0.4090639 -0.02309699 0.2361731
v 0.4156922 -0.025 0.24
v 0.4223205 -0.02309699 0.2438268
v 0.4279396 -0.01767767 0.247071
v 0.4316942 -0.009567086 0.2492388
v 0.3535534 0 0.3535533
v 0.3524769 0.009567087 0.3524768
v 0.3494112 0.01767767 0.3494112
v 0.3448232 0.02309699 0.3448232
v 0.3394113 0.025 0.3394112
v 0.3339993 0.02309699 0.3339992
v 0.3294113 0.01767767 0.3294112
v 0.3263456 0.009567087 0.3263456
v 0.3252691 -2.185569E-09 0.3252691
v 0.3263456 -0.009567086 0.3263456
v 0.3294113 -0.01767767 0.3294112
v 0.3339993 -0.02309699 0.3339992
v 0.3394113 -0.025 0.3394112
v 0.3448232 -0.02309699 0.3448232
v 0.3494112 -0.01767767 0.3494112
v 0.3524769 -0.009567086 0.3524768
v 0.25 0 0.4330127
v 0.2492387 0.009567087 0.4316943
v 0.247071 0.01767767 0.4279397
v 0.2438268 0.02309699 0.4223205
v 0.2399999 0.025 0.4156922
v 0.2361731 0.02309699 0.4090639
v 0.2329289 0.01767767 0.4034448
v 0.2307612 0.009567087 0.3996902
v 0.2299999 -2.185569E-09 0.3983717
v 0.2307612 -0.009567086 0.3996902
v 0.2329289 -0.01767767 0.4034448
v 0.2361731 -0.02309699 0.4090639
v 0.2399999 -0.025 0.4156922
v 0.2438268 -0.02309699 0.4223205
v 0.247071 -0.01767767 0.4279397
v 0.2492387 -0.009567086 0.4316943
v 0.1294095 0 0.4829629
v 0.1290155 0.009567087 0.4814924
v 0.1278934 0.01767767 0.4773047
v 0.126214 0.02309699 0.4710373
v 0.1242331 0.025 0.4636444
v 0.1222522 0.02309699 0.4562515
v 0.1205729 0.01767767 0.4499842
v 0.1194508 0.009567087 0.4457964
v 0.1190567 -2.185569E-09 0.4443259
v 0.1194508 -0.009567086 0.4457964
v 0.1205729 -0.01767767 0.4499842
v 0.1222522 -0.02309699 0.4562515
v 0.1242331 -0.025 0.4636444
v 0.126214 -0.02309699 0.4710373
v 0.1278934 -0.01767767 0.4773047
v 0.1290155 -0.009567086 0.4814924
v -6.916036E-09 0 0.5
v -6.825293E-09 0.009567087 0.4984776
v -6.566879E-09 0.01767767 0.4941421
v -6.180137E-09 0.02309699 0.4876536
v -5.723943E-09 0.025 0.48
v -5.267748E-09 0.02309699 0.4723463
v -4.881006E-09 0.01767767 0.4658579
v -4.622593E-09 0.009567087 0.4615224
v -4.53185E-09 -2.185569E-09 0.46
v -4.622593E-09 -0.009567086 0.4615224
v -4.881006E-09 -0.01767767 0.4658579
v -5.267748E-09 -0.02309699 0.4723463
v -5.723943E-09 -0.025 0.48
v -6.180137E-09 -0.02309699 0.4876537
v -6.566879E-09 -0.01767767 0.4941421
v -6.825293E-09 -0.009567086 0.4984776
v -0.1294095 0 0.4829629
v -0.1290155 0.009567087 0.4814924
v -0.1278934 0.01767767 0.4773046
v -0.126214 0.02309699 0.4710373
v -0.1242331 0.025 0.4636444
v -0.1222522 0.02309699 0.4562515
v -0.1205729 0.01767767 0.4499841
v -0.1194508 0.009567087 0.4457964
v -0.1190567 -2.185569E-09 0.4443259
v -0.1194508 -0.009567086 0.4457964
v -0.1205729 -0.01767767 0.4499841
v -0.1222522 -0.02309699 0.4562515
v -0.1242331 -0.025 0.4636444
v -0.126214 -0.02309699 0.4710373
v -0.1278934 -0.01767767 0.4773046
v -0.1290155 -0.009567086 0.4814924
v -0.25 0 0.4330127
v -0.2492387 0.009567087 0.4316943
v -0.247071 0.01767767 0.4279397
v -0.2438268 0.02309699 0.4223205
v -0.2399999 0.025 0.4156922
v -0.2361731 0.02309699 0.4090639
v -0.2329289 0.01767767 0.4034448
v -0.2307612 0.009567087 0.3996902
v -0.2299999 -2.185569E-09 0.3983717
v -0.2307612 -0.009567086 0.3996902
v -0.2329289 -0.01767767 0.4034448
v -0.2361731 -0.02309699 0.4090639
v -0.2399999 -0.025 0.4156922
v -0.2438268 -0.02309699 0.4223205
v -0.247071 -0.01767767 0.4279397
v -0.2492387 -0.009567086 0.4316943
v -0.3535533 0 0.3535534
v -0.3524768 0.009567087 0.3524769
v -0.3494112 0.01767767 0.3494113
v -0.3448232 0.02309699 0.3448232
v -0.3394112 0.025 0.3394113
v -0.3339992 0.02309699 0.3339993
v -0.3294112 0.01767767 0.3294113
v -0.3263456 0.009567087 0.3263457
v -0.3252691 -2.185569E-09 0.3252692
v -0.3263456 -0.009567086 0.3263457
v -0.3294112 -0.01767767 0.3294113
v -0.3339992 -0.02309699 0.3339993
v -0.3394112 -0.025 0.3394113
v -0.3448232 -0.02309699 0.3448232
v -0.3494112 -0.01767767 0.3494113
v -0.3524768 -0.009567086 0.3524769
v -0.4330127 0 0.2500001
v -0.4316942 0.009567087 0.2492389
v -0.4279396 0.01767767 0.2470711
v -0.4223204 0.02309699 0.2438269
v -0.4156922 0.025 0.2400001
v -0.4090639 0.02309699 0.2361732
v -0.4034447 0.01767767 0.232929
v -0.3996901 0.009567087 0.2307613
v -0.3983716 -2.185569E-09 0.2300001
v -0.3996901 -0.009567086 0.2307613
v -0.4034447 -0.01767767 0.232929
v -0.4090639 -0.02309699 0.2361732
v -0.4156922 -0.025 0.2400001
v -0.4223204 -0.02309699 0.2438269
v -0.4279396 -0.01767767 0.2470711
v -0.4316942 -0.009567086 0.2492389
v -0.4829629 0 0.1294096
v -0.4814923 0.009567087 0.1290156
v -0.4773046 0.01767767 0.1278935
v -0.4710372 0.02309699 0.1262142
v -0.4636444 0.025 0.1242333
v -0.4562515 0.02309699 0.1222523
v -0.4499841 0.01767767 0.120573
v -0.4457964 0.009567087 0.1194509
v -0.4443258 -2.185569E-09 0.1190569
v -0.4457964 -0.009567086 0.1194509
v -0.4499841 -0.01767767 0.120573
v -0.4562515 -0.02309699 0.1222523
v -0.4636444 -0.025 0.1242333
v -0.4710372 -0.02309699 0.1262142
v -0.4773046 -0.01767767 0.1278935
v -0.4814923 -0.009567086 0.1290156

vt 0 0
vt 0 0.007653669
vt 0 0.01414214
vt 0.4941421 0
vt 0.4876537 0
vt 0.48 0
vt 0.4723463 0
vt 0.4658579 0
vt 0 -0.007653669
vt 0 -0.01414213
vt -0.4658579 0
vt -0.4723463 0
vt -0.48 0
vt -0.4876537 0
vt -0.4941421 0
vt -0.1294095 0
vt -0.1290155 0.007653669
vt -0.1278934 0.01414214
vt 0.4773046 -0.1278934
vt 0.4710373 -0.1262141
vt 0.4636444 -0.1242331
vt 0.4562515 -0.1222522
vt 0.4499841 -0.1205729
vt 0.1205729 0.01414214
vt 0.1194508 0.007653669
vt 0.1190568 -1.748455E-09
vt 0.1194508 -0.007653669
vt 0.1205729 -0.01414213
vt -0.4499841 -0.1205729
vt -0.4562515 -0.1222522
vt -0.4636444 -0.1242331
vt -0.4710373 -0.1262141
vt -0.4773046 -0.1278934
vt -0.1278934 -0.01414214
vt -0.1290155 -0.007653669
vt -0.25 0
vt -0.2492388 0.007653669
vt -0.2470711 0.01414214
vt 0.4279396 -0.2470711
vt 0.4223205 -0.2438268
vt 0.4156922 -0.24
vt 0.4090639 -0.2361732
vt 0.4034447 -0.2329289
vt 0.2329289 0.01414214
vt 0.2307612 0.007653669
vt 0.23 -1.748455E-09
vt 0.2307612 -0.007653669
vt 0.2329289 -0.01414213
vt -0.4034447 -0.2329289
vt -0.4090639 -0.2361732
vt -0.4156922 -0.24
vt -0.4223205 -0.2438268
vt -0.4279396 -0.2470711
vt -0.2470711 -0.01414214
vt -0.2492388 -0.007653669
vt -0.3535534 0
vt -0.3524769 0.007653669
vt -0.3494112 0.01414214
vt 0.3494112 -0.3494112
vt 0.3448232 -0.3448232
vt 0.3394112 -0.3394112
vt 0.3339993 -0.3339993
vt 0.3294112 -0.3294112
vt 0.3294112 0.01414214
vt 0.3263456 0.007653669
vt 0.3252691 -1.748455E-09
vt 0.3263456 -0.007653669
vt 0.3294112 -0.01414213
vt -0.3294112 -0.3294112
vt -0.3339993 -0.3339993
vt -0.3394112 -0.3394112
vt -0.3448232 -0.3448232
vt -0.3494112 -0.3494112
vt -0.3494112 -0.01414214
vt -0.3524769 -0.007653669
vt 0.3535534 0
vt 0.3524769 0.007653669
vt 0.3494112 0.01414214
vt -0.3294112 0.01414214
vt -0.3263456 0.007653669
vt -0.3252691 -1.748455E-09
vt -0.3263456 -0.007653669
vt -0.3294112 -0.01414213
vt 0.3494112 -0.01414214
vt 0.3524769 -0.007653669
vt 0.25 0
vt 0.2492388 0.007653669
vt 0.247071 0.01414214
vt 0.247071 -0.4279397
vt 0.2438268 -0.4223205
vt 0.24 -0.4156922
vt 0.2361732 -0.4090639
vt 0.2329289 -0.4034448
vt -0.2329289 0.01414214
vt -0.2307612 0.007653669
vt -0.23 -1.748455E-09
vt -0.2307612 -0.007653669
vt -0.2329289 -0.01414213
vt -0.2329289 -0.4034448
vt -0.2361731 -0.4090639
vt -0.24 -0.4156922
vt -0.2438268 -0.4223205
vt -0.247071 -0.4279397
vt 0.247071 -0.01414214
vt 0.2492388 -0.007653669
vt 0.1294095 0
vt 0.1290155 0.007653669
vt 0.1278934 0.01414214
vt 0.1278934 -0.4773046
vt 0.1262141 -0.4710373
vt 0.1242331 -0.4636444
vt 0.1222522 -0.4562515
vt 0.1205729 -0.4499841
vt -0.1205729 0.01414214
vt -0.1194508 0.007653669
vt -0.1190568 -1.748455E-09
vt -0.1194508 -0.007653669
vt -0.1205729 -0.01414213
vt -0.1205729 -0.4499841
vt -0.1222522 -0.4562515
vt -0.1242331 -0.4636444
vt -0.1262141 -0.4710373
vt -0.1278934 -0.4773046
vt 0.1278934 -0.01414214
vt 0.1290155 -0.007653669
vt -2.013853E-08 -0.4941421
vt -2.052527E-08 -0.4876536
vt -2.098147E-08 -0.48
vt -2.143766E-08 -0.4723463
vt -2.18244E-08 -0.4658579
vt -0.24 -0.4156922
vt 0.23 -1.748455E-09
vt 0.24 -0.4156922
vt 0.25 0
vt -0.4156922 -0.24
vt -0.23 -1.748455E-09
vt 0.4156922 -0.24
vt -0.4773046 0.1278934
vt -0.4710373 0.1262141
vt -0.4636444 0.1242331
vt -0.4562515 0.1222522
vt -0.4499841 0.1205729
vt 0.4499841 0.1205729
vt 0.4562515 0.1222522
vt 0.4636444 0.1242331
vt 0.4710373 0.1262141
vt 0.4773046 0.1278934
vt -0.25 0
vt -0.4279396 0.247071
vt -0.4223205 0.2438268
vt -0.4156922 0.24
vt -0.4090639 0.2361732
vt -0.4034447 0.2329289
vt 0.4034447 0.2329289
vt 0.4090639 0.2361731
vt 0.4156922 0.24
vt 0.4223205 0.2438268
vt 0.4279396 0.247071
vt -0.3494112 0.3494112
vt -0.3448232 0.3448232
vt -0.3394113 0.3394112
vt -0.3339993 0.3339992
vt -0.3294113 0.3294112
vt 0.3294113 0.3294112
vt 0.3339993 0.3339992
vt 0.3394113 0.3394112
vt 0.3448232 0.3448232
vt 0.3494112 0.3494112
vt -0.247071 0.4279397
vt -0.2438268 0.4223205
vt -0.2399999 0.4156922
vt -0.2361731 0.4090639
vt -0.2329289 0.4034448
vt 0.2329289 0.4034448
vt 0.2361731 0.4090639
vt 0.2399999 0.4156922
vt 0.2438268 0.4223205
vt 0.247071 0.4279397
vt -0.1278934 0.4773047
vt -0.126214 0.4710373
vt -0.1242331 0.4636444
vt -0.1222522 0.4562515
vt -0.1205729 0.4499842
vt 0.1205729 0.4499842
vt 0.1222522 0.4562515
vt 0.1242331 0.4636444
vt 0.126214 0.4710373
vt 0.1278934 0.4773047
vt 6.566879E-09 0.4941421
vt 6.180137E-09 0.4876536
vt 5.723943E-09 0.48
vt 5.267748E-09 0.4723463
vt 4.881006E-09 0.4658579
vt 0.4156922 0.2400001
vt -0.4156922 0.2400001

vn -1 3.423521E-08 7.607824E-09
vn -0.9478118 0.3188305 -3.806142E-09
vn -0.7755398 0.6312987 0
vn -0.4523745 0.8918281 3.447281E-08
vn 2.265985E-07 1 9.601631E-10
vn 0.4523741 0.8918282 -3.064249E-08
vn 0.7755393 0.6312993 7.62905E-09
vn 0.9478118 0.3188304 -3.806142E-09
vn 1 -3.423521E-08 -1.901956E-08
vn 0.9478118 -0.3188304 -3.235221E-08
vn 0.7755398 -0.6312987 9.53631E-09
vn 0.4523746 -0.8918281 -1.532125E-08
vn 3.840652E-09 -1 6.721141E-09
vn -0.4523744 -0.8918281 -1.915156E-08
vn -0.7755397 -0.6312988 2.479441E-08
vn -0.9478118 -0.3188303 2.664299E-08
vn -0.9659258 5.325476E-08 -0.2588191
vn -0.915516 0.31883 -0.2453118
vn -0.7491138 0.6312988 -0.2007244
vn -0.4369599 0.8918282 -0.1170831
vn 0.4369598 0.8918282 0.1170831
vn 0.7491137 0.631299 0.2007244
vn 0.915516 0.31883 0.2453118
vn 0.9659258 -3.803911E-08 0.258819
vn 0.915516 -0.3188301 0.2453118
vn 0.7491138 -0.6312988 0.2007244
vn 0.43696 -0.8918282 0.1170831
vn -0.4369599 -0.8918282 -0.1170831
vn -0.7491137 -0.631299 -0.2007244
vn -0.9155161 -0.3188299 -0.2453118
vn -0.8660253 3.575677E-07 -0.5000002
vn -0.8208292 0.3188299 -0.4739061
vn -0.6716369 0.631299 -0.3877698
vn -0.3917676 0.8918282 -0.2261872
vn 0.3917676 0.8918282 0.2261872
vn 0.6716369 0.631299 0.3877698
vn 0.820829 0.3188305 0.473906
vn 0.8660254 -3.309403E-07 0.5000001
vn 0.8208292 -0.31883 0.4739061
vn 0.6716369 -0.631299 0.3877698
vn 0.3917677 -0.8918281 0.2261872
vn -0.3917676 -0.8918282 -0.2261872
vn -0.6716369 -0.6312989 -0.3877699
vn -0.820829 -0.3188303 -0.473906
vn -0.7071068 3.043128E-08 -0.7071067
vn -0.6702043 0.3188298 -0.6702042
vn -0.5483889 0.6312996 -0.5483889
vn -0.3198769 0.8918282 -0.3198769
vn 0.3198769 0.8918282 0.3198768
vn 0.548389 0.6312996 0.548389
vn 0.6702043 0.3188297 0.6702043
vn 0.7071068 -4.184301E-08 0.7071067
vn 0.6702043 -0.3188298 0.6702043
vn 0.548389 -0.6312996 0.548389
vn 0.3198769 -0.8918282 0.3198769
vn -0.3198769 -0.8918282 -0.3198768
vn -0.548389 -0.6312996 -0.5483888
vn -0.6702043 -0.3188297 -0.6702043
vn -0.5000001 -2.967051E-07 -0.8660253
vn -0.473906 0.3188305 -0.820829
vn -0.3877698 0.6312991 -0.6716369
vn -0.2261872 0.8918281 -0.3917676
vn 0.2261871 0.8918282 0.3917675
vn 0.3877698 0.6312991 0.6716369
vn 0.473906 0.31883 0.8208292
vn 0.5000001 2.852934E-07 0.8660254
vn 0.4739059 -0.3188305 0.820829
vn 0.3877698 -0.6312988 0.671637
vn 0.2261873 -0.8918281 0.3917677
vn -0.2261871 -0.8918282 -0.3917675
vn -0.3877698 -0.631299 -0.6716369
vn -0.4739061 -0.3188298 -0.8208292
vn -0.258819 7.607823E-09 -0.9659258
vn -0.2453117 0.3188301 -0.915516
vn -0.2007243 0.6312991 -0.7491136
vn -0.117083 0.8918282 -0.4369598
vn 0.1170831 0.8918282 0.43696
vn 0.2007244 0.6312989 0.7491137
vn 0.2453117 0.3188301 0.915516
vn 0.258819 -1.521565E-08 0.9659258
vn 0.2453117 -0.31883 0.915516
vn 0.2007244 -0.6312988 0.7491138
vn 0.1170831 -0.8918281 0.4369601
vn -0.117083 -0.8918282 -0.4369599
vn -0.2007243 -0.6312988 -0.7491138
vn -0.2453117 -0.31883 -0.915516
vn 2.282347E-08 3.043129E-08 -1
vn 3.425528E-08 0.3188305 -0.9478118
vn 2.288715E-08 0.6312994 -0.7755392
vn 3.830311E-08 0.8918283 -0.4523742
vn 7.660622E-09 0.8918283 0.4523741
vn -4.005251E-08 0.6312993 0.7755393
vn -3.806142E-08 0.3188304 0.9478118
vn -3.043129E-08 -3.803911E-08 1
vn -1.33215E-08 -0.3188305 0.9478118
vn -4.768155E-08 -0.6312987 0.7755398
vn -2.872734E-09 -0.891828 0.4523746
vn 3.638797E-08 -0.8918281 -0.4523745
vn 9.53631E-09 -0.6312988 -0.7755397
vn 3.806142E-09 -0.3188303 -0.9478118
vn 0.258819 5.705867E-08 -0.9659258
vn 0.2453117 0.3188302 -0.915516
vn 0.2007244 0.631299 -0.7491137
vn 0.1170831 0.8918281 -0.4369601
vn -0.1170831 0.8918282 0.4369598
vn -0.2007244 0.6312988 0.7491138
vn -0.2453118 0.31883 0.915516
vn -0.258819 -6.086258E-08 0.9659258
vn -0.2453118 -0.3188301 0.915516
vn -0.2007244 -0.6312988 0.7491139
vn -0.1170831 -0.8918282 0.43696
vn 0.1170831 -0.8918282 -0.43696
vn 0.2007244 -0.631299 -0.7491136
vn 0.2453118 -0.31883 -0.915516
vn 0.5000002 3.613716E-07 -0.8660253
vn 0.4739061 0.31883 -0.8208292
vn 0.3877698 0.631299 -0.6716369
vn 0.2261872 0.8918282 -0.3917676
vn -0.2261873 0.8918281 0.3917677
vn -0.3877699 0.6312988 0.6716371
vn -0.473906 0.3188305 0.820829
vn -0.5000001 -3.727833E-07 0.8660253
vn -0.4739061 -0.31883 0.8208292
vn -0.3877698 -0.631299 0.6716369
vn -0.2261872 -0.8918282 0.3917677
vn 0.2261872 -0.8918282 -0.3917676
vn 0.3877699 -0.631299 -0.6716369
vn 0.473906 -0.3188303 -0.820829
vn 0.7071067 3.423519E-08 -0.7071068
vn 0.6702042 0.3188297 -0.6702043
vn 0.548389 0.6312996 -0.5483889
vn 0.3198769 0.8918282 -0.3198769
vn -0.3198769 0.8918282 0.3198769
vn -0.548389 0.6312994 0.548389
vn -0.6702043 0.3188297 0.6702043
vn -0.7071068 -4.184302E-08 0.7071068
vn -0.6702043 -0.3188297 0.6702043
vn -0.5483889 -0.6312995 0.548389
vn -0.3198769 -0.8918282 0.3198769
vn 0.3198768 -0.8918283 -0.3198768
vn 0.5483889 -0.6312996 -0.548389
vn 0.6702043 -0.3188296 -0.6702043
vn 0.8660253 -2.967051E-07 -0.5000002
vn 0.820829 0.3188304 -0.473906
vn 0.6716369 0.6312989 -0.38777
vn 0.3917677 0.8918281 -0.2261874
vn -0.3917676 0.8918282 0.2261872
vn -0.6716369 0.6312989 0.3877699
vn -0.8208291 0.31883 0.4739061
vn -0.8660253 2.548621E-07 0.5000002
vn -0.820829 -0.3188304 0.4739061
vn -0.6716369 -0.6312988 0.3877699
vn -0.3917677 -0.8918281 0.2261873
vn 0.3917675 -0.8918282 -0.2261872
vn 0.6716369 -0.631299 -0.3877699
vn 0.8208292 -0.3188298 -0.4739062
vn 0.9659258 7.607823E-09 -0.2588191
vn 0.915516 0.3188301 -0.2453118
vn 0.7491137 0.6312989 -0.2007244
vn 0.4369602 0.8918281 -0.1170831
vn -0.43696 0.8918281 0.1170831
vn -0.7491136 0.631299 0.2007244
vn -0.915516 0.3188301 0.2453118
vn -0.9659258 -3.803911E-08 0.258819
vn -0.915516 -0.31883 0.2453118
vn -0.7491137 -0.631299 0.2007244
vn -0.4369601 -0.8918281 0.1170831
vn 0.4369598 -0.8918282 -0.1170831
vn 0.7491138 -0.6312988 -0.2007244
vn 0.915516 -0.31883 -0.2453118
vn 0.4999999 -3.689794E-07 -0.8660255

usemtl ProBuilderDefault
f 2/2/2 18/17/18 17/16/17 1/1/1
f 3/3/3 19/18/19 18/17/18 2/2/2
f 4/5/4 20/20/20 19/19/19 3/4/3
f 5/6/5 21/21/5 20/20/20 4/5/4
f 6/7/6 22/22/21 21/21/5 5/6/5
f 7/8/7 23/23/22 22/22/21 6/7/6
f 8/2/8 24/25/23 23/24/22 7/3/7
f 9/1/9 25/26/24 24/25/23 8/2/8
f 10/9/10 26/27/25 25/26/24 9/1/9
f 11/10/11 27/28/26 26/27/25 10/9/10
f 12/12/12 28/30/27 27/29/26 11/11/11
f 13/13/13 29/31/13 28/30/27 12/12/12
f 14/14/14 30/32/28 29/31/13 13/13/13
f 15/15/15 31/33/29 30/32/28 14/14/14
f 16/9/16 32/35/30 31/34/29 15/10/15
f 1/1/1 17/16/17 32/35/30 16/9/16
f 18/17/18 34/37/32 33/36/31 17/16/17
f 19/18/19 35/38/33 34/37/32 18/17/18
f 20/20/20 36/40/34 35/39/33 19/19/19
f 21/21/5 37/41/5 36/40/34 20/20/20
f 22/22/21 38/42/35 37/41/5 21/21/5
f 23/23/22 39/43/36 38/42/35 22/22/21
f 24/25/23 40/45/37 39/44/36 23/24/22
f 25/26/24 41/46/38 40/45/37 24/25/23
f 26/27/25 42/47/39 41/46/38 25/26/24
f 27/28/26 43/48/40 42/47/39 26/27/25
f 28/30/27 44/50/41 43/49/40 27/29/26
f 29/31/13 45/51/13 44/50/41 28/30/27
f 30/32/28 46/52/42 45/51/13 29/31/13
f 31/33/29 47/53/43 46/52/42 30/32/28
f 32/35/30 48/55/44 47/54/43 31/34/29
f 17/16/17 33/36/31 48/55/44 32/35/30
f 34/37/32 50/57/46 49/56/45 33/36/31
f 35/38/33 51/58/47 50/57/46 34/37/32
f 36/40/34 52/60/48 51/59/47 35/39/33
f 37/41/5 53/61/5 52/60/48 36/40/34
f 38/42/35 54/62/49 53/61/5 37/41/5
f 39/43/36 55/63/50 54/62/49 38/42/35
f 40/45/37 56/65/51 55/64/50 39/44/36
f 41/46/38 57/66/52 56/65/51 40/45/37
f 42/47/39 58/67/53 57/66/52 41/46/38
f 43/48/40 59/68/54 58/67/53 42/47/39
f 44/50/41 60/70/55 59/69/54 43/49/40
f 45/51/13 61/71/13 60/70/55 44/50/41
f 46/52/42 62/72/56 61/71/13 45/51/13
f 47/53/43 63/73/57 62/72/56 46/52/42
f 48/55/44 64/75/58 63/74/57 47/54/43
f 33/36/31 49/56/45 64/75/58 48/55/44
f 50/77/46 66/87/60 65/86/59 49/76/45
f 51/78/47 67/88/61 66/87/60 50/77/46
f 52/60/48 68/90/62 67/89/61 51/59/47
f 53/61/5 69/91/5 68/90/62 52/60/48
f 54/62/49 70/92/63 69/91/5 53/61/5
f 55/63/50 71/93/64 70/92/63 54/62/49
f 56/80/51 72/95/65 71/94/64 55/79/50
f 57/81/52 73/96/66 72/95/65 56/80/51
f 58/82/53 74/97/67 73/96/66 57/81/52
f 59/83/54 75/98/68 74/97/67 58/82/53
f 60/70/55 76/100/69 75/99/68 59/69/54
f 61/71/13 77/101/13 76/100/69 60/70/55
f 62/72/56 78/102/70 77/101/13 61/71/13
f 63/73/57 79/103/71 78/102/70 62/72/56
f 64/85/58 80/105/72 79/104/71 63/84/57
f 49/76/45 65/86/59 80/105/72 64/85/58
f 66/87/60 82/107/74 81/106/73 65/86/59
f 67/88/61 83/108/75 82/107/74 66/87/60
f 68/90/62 84/110/76 83/109/75 67/89/61
f 69/91/5 85/111/5 84/110/76 68/90/62
f 70/92/63 86/112/77 85/111/5 69/91/5
f 71/93/64 87/113/78 86/112/77 70/92/63
f 72/95/65 88/115/79 87/114/78 71/94/64
f 73/96/66 89/116/80 88/115/79 72/95/65
f 74/97/67 90/117/81 89/116/80 73/96/66
f 75/98/68 91/118/82 90/117/81 74/97/67
f 76/100/69 92/120/83 91/119/82 75/99/68
f 77/101/13 93/121/13 92/120/83 76/100/69
f 78/102/70 94/122/84 93/121/13 77/101/13
f 79/103/71 95/123/85 94/122/84 78/102/70
f 80/105/72 96/125/86 95/124/85 79/104/71
f 65/86/59 81/106/73 96/125/86 80/105/72
f 82/107/74 98/2/88 97/1/87 81/106/73
f 83/108/75 99/3/89 98/2/88 82/107/74
f 84/110/76 100/127/90 99/126/89 83/109/75
f 85/111/5 101/128/5 100/127/90 84/110/76
f 86/112/77 102/129/91 101/128/5 85/111/5
f 87/113/78 103/130/92 102/129/91 86/112/77
f 88/115/79 104/2/93 103/3/92 87/114/78
f 89/116/80 105/1/94 104/2/93 88/115/79
f 90/117/81 106/9/95 105/1/94 89/116/80
f 91/118/82 107/10/96 106/9/95 90/117/81
f 92/120/83 108/129/97 107/130/96 91/119/82
f 93/121/13 109/128/13 108/129/97 92/120/83
f 94/122/84 110/127/98 109/128/13 93/121/13
f 95/123/85 111/126/99 110/127/98 94/122/84
f 96/125/86 112/9/100 111/10/99 95/124/85
f 81/106/73 97/1/87 112/9/100 96/125/86
f 98/2/88 114/17/102 113/16/101 97/1/87
f 99/3/89 115/18/103 114/17/102 98/2/88
f 100/127/90 116/122/104 115/123/103 99/126/89
f 101/128/5 117/121/5 116/122/104 100/127/90
f 102/129/91 118/120/105 117/121/5 101/128/5
f 103/130/92 119/119/106 118/120/105 102/129/91
f 104/2/93 120/25/107 119/24/106 103/3/92
f 105/1/94 121/26/108 120/25/107 104/2/93
f 106/9/95 122/27/109 121/26/108 105/1/94
f 107/10/96 123/28/110 122/27/109 106/9/95
f 108/129/97 124/112/111 123/113/110 107/130/96
f 109/128/13 125/111/13 124/112/111 108/129/97
f 110/127/98 126/110/112 125/111/13 109/128/13
f 111/126/99 127/109/113 126/110/112 110/127/98
f 112/9/100 128/35/114 127/34/113 111/10/99
f 97/1/87 113/16/101 128/35/114 112/9/100
f 114/17/102 130/37/116 129/36/115 113/16/101
f 115/18/103 131/38/117 130/37/116 114/17/102
f 116/122/104 132/102/118 131/103/117 115/123/103
f 117/121/5 133/131/5 132/102/118 116/122/104
f 118/120/105 134/100/119 133/131/5 117/121/5
f 119/119/106 135/99/120 134/100/119 118/120/105
f 120/25/107 136/45/121 135/44/120 119/24/106
f 121/26/108 137/132/122 136/45/121 120/25/107
f 122/27/109 138/47/123 137/132/122 121/26/108
f 123/28/110 139/48/124 138/47/123 122/27/109
f 124/112/111 140/92/125 139/93/124 123/113/110
f 125/111/13 141/133/13 140/92/125 124/112/111
f 126/110/112 142/90/126 141/133/13 125/111/13
f 127/109/113 143/89/127 142/90/126 126/110/112
f 128/35/114 144/55/128 143/54/127 127/34/113
f 113/16/101 129/36/115 144/55/128 128/35/114
f 130/37/116 146/57/130 145/56/129 129/36/115
f 131/38/117 147/58/131 146/57/130 130/37/116
f 132/102/118 148/72/132 147/73/131 131/103/117
f 133/131/5 149/71/5 148/72/132 132/102/118
f 134/100/119 150/70/133 149/71/5 133/131/5
f 135/99/120 151/69/134 150/70/133 134/100/119
f 136/45/121 152/65/135 151/64/134 135/44/120
f 137/132/122 153/66/136 152/65/135 136/45/121
f 138/47/123 154/67/137 153/66/136 137/132/122
f 139/48/124 155/68/138 154/67/137 138/47/123
f 140/92/125 156/62/139 155/63/138 139/93/124
f 141/133/13 157/61/13 156/62/139 140/92/125
f 142/90/126 158/60/140 157/61/13 141/133/13
f 143/89/127 159/59/141 158/60/140 142/90/126
f 144/55/128 160/75/142 159/74/141 143/54/127
f 129/36/115 145/56/129 160/75/142 144/55/128
f 146/77/130 162/87/144 161/134/143 145/76/129
f 147/78/131 163/88/145 162/87/144 146/77/130
f 148/72/132 164/52/146 163/53/145 147/73/131
f 149/71/5 165/135/5 164/52/146 148/72/132
f 150/70/133 166/50/147 165/135/5 149/71/5
f 151/69/134 167/49/148 166/50/147 150/70/133
f 152/80/135 168/95/149 167/94/148 151/79/134
f 153/81/136 169/136/150 168/95/149 152/80/135
f 154/82/137 170/97/151 169/136/150 153/81/136
f 155/83/138 171/98/152 170/97/151 154/82/137
f 156/62/139 172/42/153 171/43/152 155/63/138
f 157/61/13 173/137/13 172/42/153 156/62/139
f 158/60/140 174/40/154 173/137/13 157/61/13
f 159/59/141 175/39/155 174/40/154 158/60/140
f 160/85/142 176/105/156 175/104/155 159/84/141
f 145/76/129 161/134/143 176/105/156 160/85/142
f 162/87/144 178/107/158 177/106/157 161/134/143
f 163/88/145 179/108/159 178/107/158 162/87/144
f 164/52/146 180/32/160 179/33/159 163/53/145
f 165/135/5 181/31/5 180/32/160 164/52/146
f 166/50/147 182/30/161 181/31/5 165/135/5
f 167/49/148 183/29/162 182/30/161 166/50/147
f 168/95/149 184/115/163 183/114/162 167/94/148
f 169/136/150 185/116/164 184/115/163 168/95/149
f 170/97/151 186/117/165 185/116/164 169/136/150
f 171/98/152 187/118/166 186/117/165 170/97/151
f 172/42/153 188/22/167 187/23/166 171/43/152
f 173/137/13 189/21/13 188/22/167 172/42/153
f 174/40/154 190/20/168 189/21/13 173/137/13
f 175/39/155 191/19/169 190/20/168 174/40/154
f 176/105/156 192/125/170 191/124/169 175/104/155
f 161/134/143 177/106/157 192/125/170 176/105/156
f 178/107/158 194/2/8 193/1/9 177/106/157
f 179/108/159 195/3/7 194/2/8 178/107/158
f 180/32/160 196/14/6 195/15/7 179/33/159
f 181/31/5 197/13/5 196/14/6 180/32/160
f 182/30/161 198/12/4 197/13/5 181/31/5
f 183/29/162 199/11/3 198/12/4 182/30/161
f 184/115/163 200/2/2 199/3/3 183/114/162
f 185/116/164 201/1/1 200/2/2 184/115/163
f 186/117/165 202/9/16 201/1/1 185/116/164
f 187/118/166 203/10/15 202/9/16 186/117/165
f 188/22/167 204/7/14 203/8/15 187/23/166
f 189/21/13 205/6/13 204/7/14 188/22/167
f 190/20/168 206/5/12 205/6/13 189/21/13
f 191/19/169 207/4/11 206/5/12 190/20/168
f 192/125/170 208/9/10 207/10/11 191/124/169
f 177/106/157 193/1/9 208/9/10 192/125/170
f 194/2/8 210/17/23 209/16/24 193/1/9
f 195/3/7 211/18/22 210/17/23 194/2/8
f 196/14/6 212/139/21 211/138/22 195/15/7
f 197/13/5 213/140/5 212/139/21 196/14/6
f 198/12/4 214/141/20 213/140/5 197/13/5
f 199/11/3 215/142/19 214/141/20 198/12/4
f 200/2/2 216/25/18 215/24/19 199/3/3
f 201/1/1 217/26/17 216/25/18 200/2/2
f 202/9/16 218/27/30 217/26/17 201/1/1
f 203/10/15 219/28/29 218/27/30 202/9/16
f 204/7/14 220/144/28 219/143/29 203/8/15
f 205/6/13 221/145/13 220/144/28 204/7/14
f 206/5/12 222/146/27 221/145/13 205/6/13
f 207/4/11 223/147/26 222/146/27 206/5/12
f 208/9/10 224/35/25 223/34/26 207/10/11
f 193/1/9 209/16/24 224/35/25 208/9/10
f 210/17/23 226/37/37 225/148/38 209/16/24
f 211/18/22 227/38/36 226/37/37 210/17/23
f 212/139/21 228/150/35 227/149/36 211/138/22
f 213/140/5 229/151/5 228/150/35 212/139/21
f 214/141/20 230/152/34 229/151/5 213/140/5
f 215/142/19 231/153/33 230/152/34 214/141/20
f 216/25/18 232/45/32 231/44/33 215/24/19
f 217/26/17 233/46/31 232/45/32 216/25/18
f 218/27/30 234/47/44 233/46/31 217/26/17
f 219/28/29 235/48/43 234/47/44 218/27/30
f 220/144/28 236/155/42 235/154/43 219/143/29
f 221/145/13 237/156/13 236/155/42 220/144/28
f 222/146/27 238/157/41 237/156/13 221/145/13
f 223/147/26 239/158/40 238/157/41 222/146/27
f 224/35/25 240/55/39 239/54/40 223/34/26
f 209/16/24 225/148/38 240/55/39 224/35/25
f 226/37/37 242/57/51 241/56/52 225/148/38
f 227/38/36 243/58/50 242/57/51 226/37/37
f 228/150/35 244/160/49 243/159/50 227/149/36
f 229/151/5 245/161/5 244/160/49 228/150/35
f 230/152/34 246/162/48 245/161/5 229/151/5
f 231/153/33 247/163/47 246/162/48 230/152/34
f 232/45/32 248/65/46 247/64/47 231/44/33
f 233/46/31 249/66/45 248/65/46 232/45/32
f 234/47/44 250/67/58 249/66/45 233/46/31
f 235/48/43 251/68/57 250/67/58 234/47/44
f 236/155/42 252/165/56 251/164/57 235/154/43
f 237/156/13 253/166/13 252/165/56 236/155/42
f 238/157/41 254/167/55 253/166/13 237/156/13
f 239/158/40 255/168/54 254/167/55 238/157/41
f 240/55/39 256/75/53 255/74/54 239/54/40
f 225/148/38 241/56/52 256/75/53 240/55/39
f 242/77/51 258/87/65 257/86/66 241/76/52
f 243/78/50 259/88/64 258/87/65 242/77/51
f 244/160/49 260/170/63 259/169/64 243/159/50
f 245/161/5 261/171/5 260/170/63 244/160/49
f 246/162/48 262/172/62 261/171/5 245/161/5
f 247/163/47 263/173/61 262/172/62 246/162/48
f 248/80/46 264/95/60 263/94/61 247/79/47
f 249/81/45 265/96/59 264/95/60 248/80/46
f 250/82/58 266/97/72 265/96/59 249/81/45
f 251/83/57 267/98/71 266/97/72 250/82/58
f 252/165/56 268/175/70 267/174/71 251/164/57
f 253/166/13 269/176/13 268/175/70 252/165/56
f 254/167/55 270/177/69 269/176/13 253/166/13
f 255/168/54 271/178/68 270/177/69 254/167/55
f 256/85/53 272/105/67 271/104/68 255/84/54
f 241/76/52 257/86/66 272/105/67 256/85/53
f 258/87/65 274/107/79 273/106/80 257/86/66
f 259/88/64 275/108/78 274/107/79 258/87/65
f 260/170/63 276/180/77 275/179/78 259/169/64
f 261/171/5 277/181/5 276/180/77 260/170/63
f 262/172/62 278/182/76 277/181/5 261/171/5
f 263/173/61 279/183/75 278/182/76 262/172/62
f 264/95/60 280/115/74 279/114/75 263/94/61
f 265/96/59 281/116/73 280/115/74 264/95/60
f 266/97/72 282/117/86 281/116/73 265/96/59
f 267/98/71 283/118/85 282/117/86 266/97/72
f 268/175/70 284/185/84 283/184/85 267/174/71
f 269/176/13 285/186/13 284/185/84 268/175/70
f 270/177/69 286/187/83 285/186/13 269/176/13
f 271/178/68 287/188/82 286/187/83 270/177/69
f 272/105/67 288/125/81 287/124/82 271/104/68
f 257/86/66 273/106/80 288/125/81 272/105/67
f 274/107/79 290/2/93 289/1/94 273/106/80
f 275/108/78 291/3/92 290/2/93 274/107/79
f 276/180/77 292/190/91 291/189/92 275/179/78
f 277/181/5 293/191/5 292/190/91 276/180/77
f 278/182/76 294/192/90 293/191/5 277/181/5
f 279/183/75 295/193/89 294/192/90 278/182/76
f 280/115/74 296/2/88 295/3/89 279/114/75
f 281/116/73 297/1/87 296/2/88 280/115/74
f 282/117/86 298/9/100 297/1/87 281/116/73
f 283/118/85 299/10/99 298/9/100 282/117/86
f 284/185/84 300/192/98 299/193/99 283/184/85
f 285/186/13 301/191/13 300/192/98 284/185/84
f 286/187/83 302/190/97 301/191/13 285/186/13
f 287/188/82 303/189/96 302/190/97 286/187/83
f 288/125/81 304/9/95 303/10/96 287/124/82
f 273/106/80 289/1/94 304/9/95 288/125/81
f 290/2/93 306/17/107 305/16/108 289/1/94
f 291/3/92 307/18/106 306/17/107 290/2/93
f 292/190/91 308/187/105 307/188/106 291/189/92
f 293/191/5 309/186/5 308/187/105 292/190/91
f 294/192/90 310/185/104 309/186/5 293/191/5
f 295/193/89 311/184/103 310/185/104 294/192/90
f 296/2/88 312/25/102 311/24/103 295/3/89
f 297/1/87 313/26/101 312/25/102 296/2/88
f 298/9/100 314/27/114 313/26/101 297/1/87
f 299/10/99 315/28/113 314/27/114 298/9/100
f 300/192/98 316/182/112 315/183/113 299/193/99
f 301/191/13 317/181/13 316/182/112 300/192/98
f 302/190/97 318/180/111 317/181/13 301/191/13
f 303/189/96 319/179/110 318/180/111 302/190/97
f 304/9/95 320/35/109 319/34/110 303/10/96
f 289/1/94 305/16/108 320/35/109 304/9/95
f 306/17/107 322/37/121 321/148/122 305/16/108
f 307/18/106 323/38/120 322/37/121 306/17/107
f 308/187/105 324/177/119 323/178/120 307/188/106
f 309/186/5 325/176/5 324/177/119 308/187/105
f 310/185/104 326/175/118 325/176/5 309/186/5
f 311/184/103 327/174/117 326/175/118 310/185/104
f 312/25/102 328/45/116 327/44/117 311/24/103
f 313/26/101 329/46/171 328/45/116 312/25/102
f 314/27/114 330/47/128 329/46/171 313/26/101
f 315/28/113 331/48/127 330/47/128 314/27/114
f 316/182/112 332/172/126 331/173/127 315/183/113
f 317/181/13 333/171/13 332/172/126 316/182/112
f 318/180/111 334/170/125 333/171/13 317/181/13
f 319/179/110 335/169/124 334/170/125 318/180/111
f 320/35/109 336/55/123 335/54/124 319/34/110
f 305/16/108 321/148/122 336/55/123 320/35/109
f 322/37/121 338/57/135 337/56/136 321/148/122
f 323/38/120 339/58/134 338/57/135 322/37/121
f 324/177/119 340/167/133 339/168/134 323/178/120
f 325/176/5 341/166/5 340/167/133 324/177/119
f 326/175/118 342/165/132 341/166/5 325/176/5
f 327/174/117 343/164/131 342/165/132 326/175/118
f 328/45/116 344/65/130 343/64/131 327/44/117
f 329/46/171 345/66/129 344/65/130 328/45/116
f 330/47/128 346/67/142 345/66/129 329/46/171
f 331/48/127 347/68/141 346/67/142 330/47/128
f 332/172/126 348/162/140 347/163/141 331/173/127
f 333/171/13 349/161/13 348/162/140 332/172/126
f 334/170/125 350/160/139 349/161/13 333/171/13
f 335/169/124 351/159/138 350/160/139 334/170/125
f 336/55/123 352/75/137 351/74/138 335/54/124
f 321/148/122 337/56/136 352/75/137 336/55/123
f 338/77/135 354/87/149 353/134/150 337/76/136
f 339/78/134 355/88/148 354/87/149 338/77/135
f 340/167/133 356/157/147 355/158/148 339/168/134
f 341/166/5 357/194/5 356/157/147 340/167/133
f 342/165/132 358/155/146 357/194/5 341/166/5
f 343/164/131 359/154/145 358/155/146 342/165/132
f 344/80/130 360/95/144 359/94/145 343/79/131
f 345/81/129 361/136/143 360/95/144 344/80/130
f 346/82/142 362/97/156 361/136/143 345/81/129
f 347/83/141 363/98/155 362/97/156 346/82/142
f 348/162/140 364/152/154 363/153/155 347/163/141
f 349/161/13 365/195/13 364/152/154 348/162/140
f 350/160/139 366/150/153 365/195/13 349/161/13
f 351/159/138 367/149/152 366/150/153 350/160/139
f 352/85/137 368/105/151 367/104/152 351/84/138
f 337/76/136 353/134/150 368/105/151 352/85/137
f 354/87/149 370/107/163 369/106/164 353/134/150
f 355/88/148 371/108/162 370/107/163 354/87/149
f 356/157/147 372/146/161 371/147/162 355/158/148
f 357/194/5 373/145/5 372/146/161 356/157/147
f 358/155/146 374/144/160 373/145/5 357/194/5
f 359/154/145 375/143/159 374/144/160 358/155/146
f 360/95/144 376/115/158 375/114/159 359/94/145
f 361/136/143 377/116/157 376/115/158 360/95/144
f 362/97/156 378/117/170 377/116/157 361/136/143
f 363/98/155 379/118/169 378/117/170 362/97/156
f 364/152/154 380/141/168 379/142/169 363/153/155
f 365/195/13 381/140/13 380/141/168 364/152/154
f 366/150/153 382/139/167 381/140/13 365/195/13
f 367/149/152 383/138/166 382/139/167 366/150/153
f 368/105/151 384/125/165 383/124/166 367/104/152
f 353/134/150 369/106/164 384/125/165 368/105/151
f 370/107/163 2/2/2 1/1/1 369/106/164
f 371/108/162 3/3/3 2/2/2 370/107/163
f 372/146/161 4/5/4 3/4/3 371/147/162
f 373/145/5 5/6/5 4/5/4 372/146/161
f 374/144/160 6/7/6 5/6/5 373/145/5
f 375/143/159 7/8/7 6/7/6 374/144/160
f 376/115/158 8/2/8 7/3/7 375/114/159
f 377/116/157 9/1/9 8/2/8 376/115/158
f 378/117/170 10/9/10 9/1/9 377/116/157
f 379/118/169 11/10/11 10/9/10 378/117/170
f 380/141/168 12/12/12 11/11/11 379/142/169
f 381/140/13 13/13/13 12/12/12 380/141/168
f 382/139/167 14/14/14 13/13/13 381/140/13
f 383/138/166 15/15/15 14/14/14 382/139/167
f 384/125/165 16/9/16 15/10/15 383/124/166
f 369/106/164 1/1/1 16/9/16 384/125/165

