# ProBuilder 6.0.9
# https://unity3d.com/unity/features/worldbuilding/probuilder
# 8/4/2026 3:57:12 PM

mtllib ./torus6.mtl
o torus6

g Torus
v -0.5 0 0
v -0.4969552 0.009567087 0
v -0.4882843 0.01767767 0
v -0.4753073 0.02309699 0
v -0.46 0.025 0
v -0.4446927 0.02309699 0
v -0.4317157 0.01767767 0
v -0.4230448 0.009567087 0
v -0.42 -2.185569E-09 0
v -0.4230448 -0.009567086 0
v -0.4317157 -0.01767767 0
v -0.4446927 -0.02309699 0
v -0.46 -0.025 0
v -0.4753073 -0.02309699 0
v -0.4882843 -0.01767767 0
v -0.4969552 -0.009567086 0
v -0.4829629 0 -0.1294095
v -0.4800219 0.009567087 -0.1286215
v -0.4716464 0.01767767 -0.1263773
v -0.4591116 0.02309699 -0.1230186
v -0.4443259 0.025 -0.1190568
v -0.4295402 0.02309699 -0.1150949
v -0.4170054 0.01767767 -0.1117363
v -0.4086299 0.009567087 -0.1094921
v -0.4056889 -2.185569E-09 -0.108704
v -0.4086299 -0.009567086 -0.1094921
v -0.4170054 -0.01767767 -0.1117363
v -0.4295401 -0.02309699 -0.1150949
v -0.4443259 -0.025 -0.1190568
v -0.4591117 -0.02309699 -0.1230186
v -0.4716464 -0.01767767 -0.1263773
v -0.4800219 -0.009567086 -0.1286215
v -0.4330127 0 -0.25
v -0.4303758 0.009567087 -0.2484776
v -0.4228666 0.01767767 -0.2441421
v -0.4116282 0.02309699 -0.2376537
v -0.3983717 0.025 -0.23
v -0.3851151 0.02309699 -0.2223463
v -0.3738768 0.01767767 -0.2158579
v -0.3663676 0.009567087 -0.2115224
v -0.3637307 -2.185569E-09 -0.21
v -0.3663676 -0.009567086 -0.2115224
v -0.3738768 -0.01767767 -0.2158579
v -0.3851151 -0.02309699 -0.2223463
v -0.3983717 -0.025 -0.23
v -0.4116282 -0.02309699 -0.2376537
v -0.4228666 -0.01767767 -0.2441421
v -0.4303758 -0.009567086 -0.2484776
v -0.3535534 0 -0.3535534
v -0.3514004 0.009567087 -0.3514004
v -0.3452691 0.01767767 -0.3452691
v -0.3360931 0.02309699 -0.3360931
v -0.3252691 0.025 -0.3252691
v -0.3144452 0.02309699 -0.3144452
v -0.3052691 0.01767767 -0.3052691
v -0.2991379 0.009567087 -0.2991379
v -0.2969849 -2.185569E-09 -0.2969849
v -0.2991379 -0.009567086 -0.2991379
v -0.3052691 -0.01767767 -0.3052691
v -0.3144452 -0.02309699 -0.3144452
v -0.3252691 -0.025 -0.3252691
v -0.3360931 -0.02309699 -0.3360931
v -0.3452691 -0.01767767 -0.3452691
v -0.3514004 -0.009567086 -0.3514004
v -0.25 0 -0.4330128
v -0.2484776 0.009567087 -0.4303758
v -0.2441421 0.01767767 -0.4228666
v -0.2376537 0.02309699 -0.4116283
v -0.23 0.025 -0.3983717
v -0.2223463 0.02309699 -0.3851152
v -0.2158578 0.01767767 -0.3738768
v -0.2115224 0.009567087 -0.3663676
v -0.21 -2.185569E-09 -0.3637307
v -0.2115224 -0.009567086 -0.3663676
v -0.2158578 -0.01767767 -0.3738768
v -0.2223463 -0.02309699 -0.3851152
v -0.23 -0.025 -0.3983717
v -0.2376537 -0.02309699 -0.4116283
v -0.2441421 -0.01767767 -0.4228666
v -0.2484776 -0.009567086 -0.4303758
v -0.1294095 0 -0.4829629
v -0.1286215 0.009567087 -0.4800219
v -0.1263773 0.01767767 -0.4716464
v -0.1230186 0.02309699 -0.4591116
v -0.1190568 0.025 -0.4443259
v -0.1150949 0.02309699 -0.4295402
v -0.1117363 0.01767767 -0.4170054
v -0.1094921 0.009567087 -0.4086299
v -0.108704 -2.185569E-09 -0.4056889
v -0.1094921 -0.009567086 -0.4086299
v -0.1117363 -0.01767767 -0.4170054
v -0.1150949 -0.02309699 -0.4295401
v -0.1190568 -0.025 -0.4443259
v -0.1230186 -0.02309699 -0.4591117
v -0.1263773 -0.01767767 -0.4716464
v -0.1286215 -0.009567086 -0.4800219
v 1.772305E-08 0 -0.5
v 1.790454E-08 0.009567087 -0.4969552
v 1.842136E-08 0.01767767 -0.4882843
v 1.919485E-08 0.02309699 -0.4753073
v 2.010724E-08 0.025 -0.46
v 2.101963E-08 0.02309699 -0.4446927
v 2.179311E-08 0.01767767 -0.4317157
v 2.230994E-08 0.009567087 -0.4230448
v 2.249142E-08 -2.185569E-09 -0.42
v 2.230994E-08 -0.009567086 -0.4230448
v 2.179311E-08 -0.01767767 -0.4317157
v 2.101963E-08 -0.02309699 -0.4446927
v 2.010724E-08 -0.025 -0.46
v 1.919485E-08 -0.02309699 -0.4753073
v 1.842137E-08 -0.01767767 -0.4882843
v 1.790454E-08 -0.009567086 -0.4969552
v 0.1294095 0 -0.4829629
v 0.1286215 0.009567087 -0.4800219
v 0.1263773 0.01767767 -0.4716464
v 0.1230186 0.02309699 -0.4591116
v 0.1190568 0.025 -0.4443259
v 0.1150949 0.02309699 -0.4295402
v 0.1117363 0.01767767 -0.4170054
v 0.1094921 0.009567087 -0.4086299
v 0.108704 -2.185569E-09 -0.4056889
v 0.1094921 -0.009567086 -0.4086299
v 0.1117363 -0.01767767 -0.4170054
v 0.1150949 -0.02309699 -0.4295401
v 0.1190568 -0.025 -0.4443259
v 0.1230186 -0.02309699 -0.4591117
v 0.1263773 -0.01767767 -0.4716464
v 0.1286215 -0.009567086 -0.4800219
v 0.25 0 -0.4330127
v 0.2484776 0.009567087 -0.4303758
v 0.2441422 0.01767767 -0.4228666
v 0.2376537 0.02309699 -0.4116282
v 0.23 0.025 -0.3983717
v 0.2223464 0.02309699 -0.3851151
v 0.2158579 0.01767767 -0.3738768
v 0.2115224 0.009567087 -0.3663676
v 0.21 -2.185569E-09 -0.3637307
v 0.2115224 -0.009567086 -0.3663676
v 0.2158579 -0.01767767 -0.3738768
v 0.2223464 -0.02309699 -0.3851151
v 0.23 -0.025 -0.3983717
v 0.2376537 -0.02309699 -0.4116282
v 0.2441422 -0.01767767 -0.4228666
v 0.2484776 -0.009567086 -0.4303758
v 0.3535534 0 -0.3535534
v 0.3514004 0.009567087 -0.3514004
v 0.3452691 0.01767767 -0.3452691
v 0.3360931 0.02309699 -0.3360931
v 0.3252691 0.025 -0.3252691
v 0.3144452 0.02309699 -0.3144452
v 0.3052691 0.01767767 -0.3052691
v 0.2991379 0.009567087 -0.2991379
v 0.2969849 -2.185569E-09 -0.2969849
v 0.2991379 -0.009567086 -0.2991379
v 0.3052691 -0.01767767 -0.3052691
v 0.3144452 -0.02309699 -0.3144452
v 0.3252691 -0.025 -0.3252691
v 0.3360931 -0.02309699 -0.3360931
v 0.3452691 -0.01767767 -0.3452691
v 0.3514004 -0.009567086 -0.3514004
v 0.4330127 0 -0.25
v 0.4303758 0.009567087 -0.2484776
v 0.4228666 0.01767767 -0.2441422
v 0.4116282 0.02309699 -0.2376537
v 0.3983717 0.025 -0.23
v 0.3851151 0.02309699 -0.2223464
v 0.3738768 0.01767767 -0.2158579
v 0.3663676 0.009567087 -0.2115224
v 0.3637307 -2.185569E-09 -0.21
v 0.3663676 -0.009567086 -0.2115224
v 0.3738768 -0.01767767 -0.2158579
v 0.3851151 -0.02309699 -0.2223464
v 0.3983717 -0.025 -0.23
v 0.4116282 -0.02309699 -0.2376537
v 0.4228666 -0.01767767 -0.2441422
v 0.4303758 -0.009567086 -0.2484776
v 0.4829629 0 -0.1294096
v 0.4800218 0.009567087 -0.1286215
v 0.4716464 0.01767767 -0.1263773
v 0.4591116 0.02309699 -0.1230186
v 0.4443259 0.025 -0.1190568
v 0.4295402 0.02309699 -0.115095
v 0.4170054 0.01767767 -0.1117363
v 0.40863 0.009567087 -0.1094921
v 0.4056889 -2.185569E-09 -0.108704
v 0.40863 -0.009567086 -0.1094921
v 0.4170054 -0.01767767 -0.1117363
v 0.4295401 -0.02309699 -0.115095
v 0.4443259 -0.025 -0.1190568
v 0.4591117 -0.02309699 -0.1230186
v 0.4716464 -0.01767767 -0.1263773
v 0.4800219 -0.009567086 -0.1286215
v 0.5 0 3.671757E-08
v 0.4969552 0.009567087 3.698375E-08
v 0.4882843 0.01767767 3.774179E-08
v 0.4753073 0.02309699 3.887627E-08
v 0.46 0.025 4.021448E-08
v 0.4446927 0.02309699 4.155269E-08
v 0.4317157 0.01767767 4.268717E-08
v 0.4230448 0.009567087 4.34452E-08
v 0.42 -2.185569E-09 4.371139E-08
v 0.4230448 -0.009567086 4.34452E-08
v 0.4317157 -0.01767767 4.268717E-08
v 0.4446927 -0.02309699 4.155269E-08
v 0.46 -0.025 4.021448E-08
v 0.4753073 -0.02309699 3.887627E-08
v 0.4882843 -0.01767767 3.774179E-08
v 0.4969552 -0.009567086 3.698375E-08
v 0.4829629 0 0.1294095
v 0.4800218 0.009567087 0.1286215
v 0.4716464 0.01767767 0.1263773
v 0.4591116 0.02309699 0.1230186
v 0.4443259 0.025 0.1190568
v 0.4295402 0.02309699 0.1150949
v 0.4170054 0.01767767 0.1117363
v 0.40863 0.009567087 0.1094921
v 0.4056889 -2.185569E-09 0.108704
v 0.40863 -0.009567086 0.1094921
v 0.4170054 -0.01767767 0.1117363
v 0.4295401 -0.02309699 0.1150949
v 0.4443259 -0.025 0.1190568
v 0.4591117 -0.02309699 0.1230186
v 0.4716464 -0.01767767 0.1263773
v 0.4800219 -0.009567086 0.1286215
v 0.4330127 0 0.25
v 0.4303758 0.009567087 0.2484776
v 0.4228666 0.01767767 0.2441421
v 0.4116282 0.02309699 0.2376537
v 0.3983717 0.025 0.23
v 0.3851151 0.02309699 0.2223463
v 0.3738768 0.01767767 0.2158579
v 0.3663676 0.009567087 0.2115224
v 0.3637307 -2.185569E-09 0.21
v 0.3663676 -0.009567086 0.2115224
v 0.3738768 -0.01767767 0.2158579
v 0.3851151 -0.02309699 0.2223463
v 0.3983717 -0.025 0.23
v 0.4116282 -0.02309699 0.2376537
v 0.4228666 -0.01767767 0.2441421
v 0.4303758 -0.009567086 0.2484776
v 0.3535534 0 0.3535534
v 0.3514004 0.009567087 0.3514003
v 0.3452691 0.01767767 0.3452691
v 0.3360931 0.02309699 0.336093
v 0.3252691 0.025 0.3252691
v 0.3144452 0.02309699 0.3144452
v 0.3052691 0.01767767 0.3052691
v 0.2991379 0.009567087 0.2991379
v 0.2969849 -2.185569E-09 0.2969848
v 0.2991379 -0.009567086 0.2991379
v 0.3052691 -0.01767767 0.3052691
v 0.3144452 -0.02309699 0.3144452
v 0.3252691 -0.025 0.3252691
v 0.3360931 -0.02309699 0.336093
v 0.3452691 -0.01767767 0.3452691
v 0.3514004 -0.009567086 0.3514004
v 0.25 0 0.4330128
v 0.2484775 0.009567087 0.4303758
v 0.2441421 0.01767767 0.4228666
v 0.2376536 0.02309699 0.4116283
v 0.23 0.025 0.3983717
v 0.2223463 0.02309699 0.3851152
v 0.2158578 0.01767767 0.3738768
v 0.2115224 0.009567087 0.3663676
v 0.21 -2.185569E-09 0.3637307
v 0.2115224 -0.009567086 0.3663676
v 0.2158578 -0.01767767 0.3738768
v 0.2223463 -0.02309699 0.3851152
v 0.23 -0.025 0.3983717
v 0.2376536 -0.02309699 0.4116283
v 0.2441421 -0.01767767 0.4228666
v 0.2484775 -0.009567086 0.4303758
v 0.1294095 0 0.482963
v 0.1286214 0.009567087 0.4800219
v 0.1263772 0.01767767 0.4716464
v 0.1230186 0.02309699 0.4591117
v 0.1190567 0.025 0.4443259
v 0.1150949 0.02309699 0.4295402
v 0.1117362 0.01767767 0.4170054
v 0.109492 0.009567087 0.40863
v 0.108704 -2.185569E-09 0.4056889
v 0.109492 -0.009567086 0.40863
v 0.1117362 -0.01767767 0.4170054
v 0.1150949 -0.02309699 0.4295402
v 0.1190567 -0.025 0.4443259
v 0.1230186 -0.02309699 0.4591117
v 0.1263772 -0.01767767 0.4716464
v 0.1286214 -0.009567086 0.4800219
v -7.86963E-09 0 0.5
v -7.688145E-09 0.009567087 0.4969552
v -7.171319E-09 0.01767767 0.4882843
v -6.397833E-09 0.02309699 0.4753073
v -5.485445E-09 0.025 0.46
v -4.573057E-09 0.02309699 0.4446927
v -3.799571E-09 0.01767767 0.4317157
v -3.282745E-09 0.009567087 0.4230448
v -3.101259E-09 -2.185569E-09 0.42
v -3.282745E-09 -0.009567086 0.4230448
v -3.799571E-09 -0.01767767 0.4317157
v -4.573056E-09 -0.02309699 0.4446927
v -5.485445E-09 -0.025 0.46
v -6.397834E-09 -0.02309699 0.4753073
v -7.171319E-09 -0.01767767 0.4882843
v -7.688145E-09 -0.009567086 0.4969552
v -0.1294095 0 0.4829629
v -0.1286214 0.009567087 0.4800219
v -0.1263773 0.01767767 0.4716464
v -0.1230186 0.02309699 0.4591116
v -0.1190567 0.025 0.4443259
v -0.1150949 0.02309699 0.4295402
v -0.1117362 0.01767767 0.4170054
v -0.109492 0.009567087 0.4086299
v -0.108704 -2.185569E-09 0.4056889
v -0.109492 -0.009567086 0.4086299
v -0.1117362 -0.01767767 0.4170054
v -0.1150949 -0.02309699 0.4295401
v -0.1190567 -0.025 0.4443259
v -0.1230186 -0.02309699 0.4591117
v -0.1263773 -0.01767767 0.4716464
v -0.1286215 -0.009567086 0.4800219
v -0.25 0 0.4330128
v -0.2484775 0.009567087 0.4303758
v -0.2441421 0.01767767 0.4228666
v -0.2376536 0.02309699 0.4116283
v -0.23 0.025 0.3983717
v -0.2223463 0.02309699 0.3851152
v -0.2158578 0.01767767 0.3738768
v -0.2115224 0.009567087 0.3663676
v -0.21 -2.185569E-09 0.3637307
v -0.2115224 -0.009567086 0.3663676
v -0.2158578 -0.01767767 0.3738768
v -0.2223463 -0.02309699 0.3851152
v -0.23 -0.025 0.3983717
v -0.2376536 -0.02309699 0.4116283
v -0.2441421 -0.01767767 0.4228666
v -0.2484775 -0.009567086 0.4303758
v -0.3535534 0 0.3535534
v -0.3514003 0.009567087 0.3514004
v -0.3452691 0.01767767 0.3452692
v -0.336093 0.02309699 0.3360931
v -0.3252691 0.025 0.3252692
v -0.3144452 0.02309699 0.3144452
v -0.3052691 0.01767767 0.3052692
v -0.2991378 0.009567087 0.2991379
v -0.2969848 -2.185569E-09 0.2969849
v -0.2991378 -0.009567086 0.2991379
v -0.3052691 -0.01767767 0.3052692
v -0.3144451 -0.02309699 0.3144452
v -0.3252691 -0.025 0.3252692
v -0.336093 -0.02309699 0.3360931
v -0.3452691 -0.01767767 0.3452691
v -0.3514003 -0.009567086 0.3514004
v -0.4330127 0 0.2500001
v -0.4303758 0.009567087 0.2484777
v -0.4228666 0.01767767 0.2441422
v -0.4116282 0.02309699 0.2376538
v -0.3983717 0.025 0.2300001
v -0.3851151 0.02309699 0.2223464
v -0.3738768 0.01767767 0.215858
v -0.3663675 0.009567087 0.2115225
v -0.3637307 -2.185569E-09 0.2100001
v -0.3663675 -0.009567086 0.2115225
v -0.3738768 -0.01767767 0.215858
v -0.3851151 -0.02309699 0.2223464
v -0.3983717 -0.025 0.2300001
v -0.4116282 -0.02309699 0.2376538
v -0.4228666 -0.01767767 0.2441422
v -0.4303758 -0.009567086 0.2484777
v -0.4829629 0 0.1294096
v -0.4800218 0.009567087 0.1286216
v -0.4716464 0.01767767 0.1263774
v -0.4591116 0.02309699 0.1230187
v -0.4443259 0.025 0.1190569
v -0.4295401 0.02309699 0.115095
v -0.4170054 0.01767767 0.1117364
v -0.4086299 0.009567087 0.1094922
v -0.4056888 -2.185569E-09 0.1087041
v -0.4086299 -0.009567086 0.1094922
v -0.4170054 -0.01767767 0.1117364
v -0.4295401 -0.02309699 0.115095
v -0.4443259 -0.025 0.1190569
v -0.4591116 -0.02309699 0.1230187
v -0.4716464 -0.01767767 0.1263774
v -0.4800218 -0.009567086 0.1286216

vt 0 0
vt 0 0.01530734
vt 0 0.02828427
vt 0.4882843 0
vt 0.4753073 0
vt 0.46 0
vt 0.4446927 0
vt 0.4317157 0
vt 0 -0.01530734
vt 0 -0.02828427
vt -0.4317157 0
vt -0.4446927 0
vt -0.46 0
vt -0.4753073 0
vt -0.4882843 0
vt -0.1294095 0
vt -0.1286215 0.01530734
vt -0.1263773 0.02828427
vt 0.4716464 -0.1263773
vt 0.4591116 -0.1230186
vt 0.4443259 -0.1190568
vt 0.4295402 -0.1150949
vt 0.4170054 -0.1117363
vt 0.1117363 0.02828427
vt 0.1094921 0.01530734
vt 0.108704 -3.496911E-09
vt 0.1094921 -0.01530734
vt 0.1117363 -0.02828427
vt -0.4170054 -0.1117363
vt -0.4295401 -0.1150949
vt -0.4443259 -0.1190568
vt -0.4591117 -0.1230186
vt -0.4716464 -0.1263773
vt -0.1263773 -0.02828427
vt -0.1286215 -0.01530734
vt -0.25 0
vt -0.2484776 0.01530734
vt -0.2441421 0.02828427
vt 0.4228666 -0.2441421
vt 0.4116282 -0.2376537
vt 0.3983717 -0.23
vt 0.3851151 -0.2223463
vt 0.3738768 -0.2158579
vt 0.2158579 0.02828427
vt 0.2115224 0.01530734
vt 0.21 -3.496911E-09
vt 0.2115224 -0.01530734
vt 0.2158579 -0.02828427
vt -0.3738768 -0.2158579
vt -0.3851151 -0.2223463
vt -0.3983717 -0.23
vt -0.4116282 -0.2376537
vt -0.4228666 -0.2441421
vt -0.2441421 -0.02828427
vt -0.2484776 -0.01530734
vt -0.3535534 0
vt -0.3514004 0.01530734
vt -0.3452691 0.02828427
vt 0.3452691 -0.3452691
vt 0.3360931 -0.3360931
vt 0.3252691 -0.3252691
vt 0.3144452 -0.3144452
vt 0.3052691 -0.3052691
vt 0.3052691 0.02828427
vt 0.2991379 0.01530734
vt 0.2969849 -3.496911E-09
vt 0.2991379 -0.01530734
vt 0.3052691 -0.02828427
vt -0.3052691 -0.3052691
vt -0.3144452 -0.3144452
vt -0.3252691 -0.3252691
vt -0.3360931 -0.3360931
vt -0.3452691 -0.3452691
vt -0.3452691 -0.02828427
vt -0.3514004 -0.01530734
vt 0.3535534 0
vt 0.3514004 0.01530734
vt 0.3452691 0.02828427
vt -0.3052691 0.02828427
vt -0.2991379 0.01530734
vt -0.2969849 -3.496911E-09
vt -0.2991379 -0.01530734
vt -0.3052691 -0.02828427
vt 0.3452691 -0.02828427
vt 0.3514004 -0.01530734
vt 0.25 0
vt 0.2484776 0.01530734
vt 0.2441421 0.02828427
vt 0.2441421 -0.4228666
vt 0.2376537 -0.4116283
vt 0.23 -0.3983717
vt 0.2223463 -0.3851152
vt 0.2158578 -0.3738768
vt -0.2158578 0.02828427
vt -0.2115224 0.01530734
vt -0.21 -3.496911E-09
vt -0.2115224 -0.01530734
vt -0.2158578 -0.02828427
vt -0.2158578 -0.3738768
vt -0.2223463 -0.3851152
vt -0.23 -0.3983717
vt -0.2376537 -0.4116283
vt -0.2441421 -0.4228666
vt 0.2441421 -0.02828427
vt 0.2484776 -0.01530734
vt 0.1294095 0
vt 0.1286215 0.01530734
vt 0.1263773 0.02828427
vt 0.1263773 -0.4716464
vt 0.1230186 -0.4591116
vt 0.1190568 -0.4443259
vt 0.1150949 -0.4295402
vt 0.1117363 -0.4170054
vt -0.1117363 0.02828427
vt -0.1094921 0.01530734
vt -0.108704 -3.496911E-09
vt -0.1094921 -0.01530734
vt -0.1117363 -0.02828427
vt -0.1117363 -0.4170054
vt -0.1150949 -0.4295401
vt -0.1190568 -0.4443259
vt -0.1230186 -0.4591117
vt -0.1263773 -0.4716464
vt 0.1263773 -0.02828427
vt 0.1286215 -0.01530734
vt -1.842136E-08 -0.4882843
vt -1.919485E-08 -0.4753073
vt -2.010724E-08 -0.46
vt -2.101963E-08 -0.4446927
vt -2.179311E-08 -0.4317157
vt -0.23 -0.3983717
vt 0.23 -0.3983717
vt 0.25 0
vt -0.21 -3.496911E-09
vt -0.4716464 0.1263773
vt -0.4591116 0.1230186
vt -0.4443259 0.1190568
vt -0.4295402 0.1150949
vt -0.4170054 0.1117363
vt 0.4170054 0.1117363
vt 0.4295401 0.1150949
vt 0.4443259 0.1190568
vt 0.4591117 0.1230186
vt 0.4716464 0.1263773
vt -0.25 0
vt -0.4228666 0.2441421
vt -0.4116282 0.2376537
vt -0.3983717 0.23
vt -0.3851151 0.2223463
vt -0.3738768 0.2158579
vt 0.21 -3.496911E-09
vt 0.3738768 0.2158579
vt 0.3851151 0.2223463
vt 0.3983717 0.23
vt 0.4116282 0.2376537
vt 0.4228666 0.2441421
vt -0.3452691 0.3452691
vt -0.3360931 0.336093
vt -0.3252691 0.3252691
vt -0.3144452 0.3144452
vt -0.3052691 0.3052691
vt 0.3052691 0.3052691
vt 0.3144452 0.3144452
vt 0.3252691 0.3252691
vt 0.3360931 0.336093
vt 0.3452691 0.3452691
vt -0.2441421 0.4228666
vt -0.2376536 0.4116283
vt -0.23 0.3983717
vt -0.2223463 0.3851152
vt -0.2158578 0.3738768
vt 0.2158578 0.3738768
vt 0.2223463 0.3851152
vt 0.23 0.3983717
vt 0.2376536 0.4116283
vt 0.2441421 0.4228666
vt -0.1263772 0.4716464
vt -0.1230186 0.4591117
vt -0.1190567 0.4443259
vt -0.1150949 0.4295402
vt -0.1117362 0.4170054
vt 0.1117362 0.4170054
vt 0.1150949 0.4295402
vt 0.1190567 0.4443259
vt 0.1230186 0.4591117
vt 0.1263772 0.4716464
vt 7.171319E-09 0.4882843
vt 6.397833E-09 0.4753073
vt 5.485445E-09 0.46
vt 4.573057E-09 0.4446927
vt 3.799571E-09 0.4317157
vt 0.3983717 0.2300001
vt -0.3983717 0.2300001

vn -1 6.304079E-08 1.57602E-08
vn -0.8451543 0.5345223 2.130123E-08
vn -0.5426271 0.8399737 4.459485E-08
vn -0.2566571 0.9665025 4.703313E-09
vn -5.819418E-08 1 -2.815847E-09
vn 0.256657 0.9665025 -3.762651E-09
vn 0.5426271 0.8399737 -1.707888E-08
vn 0.8451543 0.5345223 -6.003074E-08
vn 1 -8.668109E-08 -2.167027E-08
vn 0.8451543 -0.5345224 2.517418E-08
vn 0.5426272 -0.8399736 -3.415775E-08
vn 0.2566571 -0.9665025 -2.821988E-09
vn -1.877231E-09 -1 -4.693079E-09
vn -0.2566573 -0.9665025 2.821988E-09
vn -0.5426269 -0.8399738 1.707887E-08
vn -0.8451541 -0.5345228 1.161886E-08
vn -0.9659258 -2.127627E-07 -0.258819
vn -0.8163561 0.534523 -0.2187419
vn -0.5241371 0.839974 -0.1404422
vn -0.2479118 0.9665025 -0.06642778
vn 0.2479117 0.9665025 0.06642773
vn 0.5241374 0.8399738 0.1404422
vn 0.8163561 0.534523 0.2187419
vn 0.9659258 1.654821E-07 0.2588191
vn 0.816356 -0.5345231 0.2187419
vn 0.5241374 -0.8399737 0.1404422
vn 0.247912 -0.9665025 0.06642781
vn -0.2479119 -0.9665025 -0.06642777
vn -0.5241374 -0.8399738 -0.1404422
vn -0.8163562 -0.5345227 -0.218742
vn -0.8660254 -2.28523E-07 -0.5
vn -0.7319245 0.5345234 -0.4225769
vn -0.469929 0.8399736 -0.2713136
vn -0.2222718 0.9665025 -0.1283286
vn 0.2222717 0.9665025 0.1283287
vn 0.4699289 0.8399737 0.2713135
vn 0.7319248 0.534523 0.422577
vn 0.8660254 1.260816E-07 0.5
vn 0.7319246 -0.5345234 0.4225768
vn 0.4699291 -0.8399736 0.2713137
vn 0.2222718 -0.9665025 0.1283287
vn -0.2222717 -0.9665025 -0.1283286
vn -0.4699289 -0.8399737 -0.2713135
vn -0.7319247 -0.5345231 -0.422577
vn -0.7071068 -3.152041E-08 -0.7071068
vn -0.597614 0.5345231 -0.597614
vn -0.3836956 0.8399735 -0.3836955
vn -0.181484 0.9665025 -0.181484
vn 0.181484 0.9665025 0.1814839
vn 0.3836954 0.8399736 0.3836954
vn 0.5976142 0.5345229 0.597614
vn 0.7071068 -1.576021E-08 0.7071068
vn 0.5976141 -0.534523 0.597614
vn 0.3836956 -0.8399734 0.3836955
vn 0.1814841 -0.9665025 0.181484
vn -0.1814841 -0.9665025 -0.1814841
vn -0.3836954 -0.8399736 -0.3836954
vn -0.597614 -0.5345232 -0.597614
vn -0.5 2.679235E-07 -0.8660254
vn -0.4225769 0.5345231 -0.7319248
vn -0.2713135 0.8399737 -0.4699289
vn -0.1283286 0.9665025 -0.2222717
vn 0.1283286 0.9665025 0.2222717
vn 0.2713136 0.8399736 0.4699289
vn 0.4225768 0.5345232 0.7319247
vn 0.5 -2.600434E-07 0.8660254
vn 0.4225769 -0.5345231 0.7319247
vn 0.2713136 -0.8399737 0.4699288
vn 0.1283287 -0.9665025 0.2222718
vn -0.1283286 -0.9665025 -0.2222717
vn -0.2713135 -0.8399737 -0.4699289
vn -0.4225769 -0.5345233 -0.7319246
vn -0.2588189 4.412857E-07 -0.9659259
vn -0.2187419 0.5345229 -0.8163561
vn -0.1404421 0.8399738 -0.5241374
vn -0.06642771 0.9665025 -0.2479117
vn 0.06642774 0.9665025 0.2479118
vn 0.140442 0.8399739 0.5241372
vn 0.2187418 0.534523 0.8163561
vn 0.258819 -3.309642E-07 0.9659258
vn 0.2187419 -0.5345228 0.8163561
vn 0.1404421 -0.8399737 0.5241376
vn 0.06642777 -0.9665025 0.2479119
vn -0.06642775 -0.9665025 -0.2479119
vn -0.1404421 -0.8399738 -0.5241374
vn -0.2187419 -0.534523 -0.8163561
vn 2.167027E-08 5.516069E-08 -1
vn 9.682378E-09 0.5345223 -0.8451543
vn -1.613005E-08 0.8399737 -0.5426271
vn 5.643976E-09 0.9665025 -0.2566571
vn -1.222862E-08 0.9665025 0.2566571
vn -1.707888E-08 0.8399737 0.5426272
vn 1.549181E-08 0.5345224 0.8451543
vn -3.546045E-08 -3.94005E-08 1
vn -6.971312E-08 -0.5345223 0.8451543
vn 6.641785E-09 -0.8399736 0.5426272
vn -1.128795E-08 -0.9665025 0.2566571
vn 9.406627E-09 -0.9665025 -0.2566573
vn 3.795305E-09 -0.8399738 -0.5426269
vn 3.098361E-08 -0.5345228 -0.8451541
vn 0.2588189 -1.812423E-07 -0.9659259
vn 0.2187419 0.534523 -0.816356
vn 0.1404422 0.8399739 -0.5241372
vn 0.06642776 0.9665025 -0.2479118
vn -0.06642772 0.9665025 0.2479117
vn -0.1404422 0.8399738 0.5241374
vn -0.2187419 0.5345228 0.8163561
vn -0.2588191 2.442831E-07 0.9659258
vn -0.2187418 -0.5345231 0.8163559
vn -0.1404422 -0.8399737 0.5241375
vn -0.0664278 -0.9665025 0.247912
vn 0.06642776 -0.9665025 -0.2479119
vn 0.1404422 -0.8399738 -0.5241374
vn 0.218742 -0.5345228 -0.8163562
vn 0.5 -7.092093E-08 -0.8660254
vn 0.4225769 0.5345235 -0.7319245
vn 0.2713137 0.8399736 -0.469929
vn 0.1283286 0.9665025 -0.2222718
vn -0.1283287 0.9665025 0.2222717
vn -0.2713136 0.8399737 0.4699289
vn -0.4225769 0.5345231 0.7319247
vn -0.5 3.309644E-07 0.8660254
vn -0.4225767 -0.5345237 0.7319244
vn -0.2713138 -0.8399735 0.4699291
vn -0.1283287 -0.9665025 0.2222717
vn 0.1283286 -0.9665025 -0.2222717
vn 0.2713136 -0.8399737 -0.4699289
vn 0.422577 -0.534523 -0.7319248
vn 0.7071068 8.510514E-07 -0.7071068
vn 0.597614 0.5345232 -0.597614
vn 0.3836957 0.8399733 -0.3836958
vn 0.181484 0.9665025 -0.181484
vn -0.1814839 0.9665025 0.1814839
vn -0.3836957 0.8399733 0.3836957
vn -0.5976139 0.5345232 0.597614
vn -0.7071068 -1.733624E-07 0.7071068
vn -0.597614 -0.5345232 0.5976139
vn -0.3836958 -0.8399733 0.3836958
vn -0.181484 -0.9665025 0.181484
vn 0.1814841 -0.9665025 -0.1814841
vn 0.3836954 -0.8399736 -0.3836954
vn 0.597614 -0.5345232 -0.597614
vn 0.8660254 8.904516E-07 -0.5
vn 0.7319248 0.5345228 -0.4225771
vn 0.469929 0.8399736 -0.2713136
vn 0.2222717 0.9665025 -0.1283286
vn -0.2222717 0.9665025 0.1283286
vn -0.469929 0.8399735 0.2713138
vn -0.7319246 0.5345233 0.4225769
vn -0.8660253 -4.964465E-07 0.5000002
vn -0.7319247 -0.5345229 0.4225771
vn -0.469929 -0.8399736 0.2713137
vn -0.2222717 -0.9665025 0.1283287
vn 0.2222717 -0.9665025 -0.1283287
vn 0.4699289 -0.8399737 -0.2713136
vn 0.7319246 -0.5345232 -0.4225769
vn 0.9659258 1.347497E-06 -0.258819
vn 0.8163564 0.5345222 -0.218742
vn 0.5241377 0.8399736 -0.1404423
vn 0.2479117 0.9665025 -0.06642771
vn -0.2479118 0.9665025 0.06642775
vn -0.5241377 0.8399736 0.1404422
vn -0.8163564 0.5345225 0.218742
vn -0.9659258 -3.073239E-07 0.258819
vn -0.8163564 -0.5345224 0.2187419
vn -0.5241381 -0.8399734 0.1404423
vn -0.2479119 -0.9665025 0.06642779
vn 0.2479119 -0.9665025 -0.06642776
vn 0.5241375 -0.8399737 -0.1404422
vn 0.8163565 -0.5345221 -0.218742
vn -0.8660253 3.703649E-07 -0.5000002
vn 0.5000001 4.885664E-07 0.8660254
vn -0.5000001 -4.964465E-07 -0.8660254
vn 0.5 1.103214E-07 -0.8660254
vn 0.8660253 -1.891224E-07 -0.5000002

usemtl ProBuilderDefault
f 2/2/2 18/17/18 17/16/17 1/1/1
f 3/3/3 19/18/19 18/17/18 2/2/2
f 4/5/4 20/20/20 19/19/19 3/4/3
f 5/6/5 21/21/5 20/20/20 4/5/4
f 6/7/6 22/22/21 21/21/5 5/6/5
f 7/8/7 23/23/22 22/22/21 6/7/6
f 8/2/8 24/25/23 23/24/22 7/3/7
f 9/1/9 25/26/24 24/25/23 8/2/8
f 10/9/10 26/27/25 25/26/24 9/1/9
f 11/10/11 27/28/26 26/27/25 10/9/10
f 12/12/12 28/30/27 27/29/26 11/11/11
f 13/13/13 29/31/13 28/30/27 12/12/12
f 14/14/14 30/32/28 29/31/13 13/13/13
f 15/15/15 31/33/29 30/32/28 14/14/14
f 16/9/16 32/35/30 31/34/29 15/10/15
f 1/1/1 17/16/17 32/35/30 16/9/16
f 18/17/18 34/37/32 33/36/31 17/16/17
f 19/18/19 35/38/33 34/37/32 18/17/18
f 20/20/20 36/40/34 35/39/33 19/19/19
f 21/21/5 37/41/5 36/40/34 20/20/20
f 22/22/21 38/42/35 37/41/5 21/21/5
f 23/23/22 39/43/36 38/42/35 22/22/21
f 24/25/23 40/45/37 39/44/36 23/24/22
f 25/26/24 41/46/38 40/45/37 24/25/23
f 26/27/25 42/47/39 41/46/38 25/26/24
f 27/28/26 43/48/40 42/47/39 26/27/25
f 28/30/27 44/50/41 43/49/40 27/29/26
f 29/31/13 45/51/13 44/50/41 28/30/27
f 30/32/28 46/52/42 45/51/13 29/31/13
f 31/33/29 47/53/43 46/52/42 30/32/28
f 32/35/30 48/55/44 47/54/43 31/34/29
f 17/16/17 33/36/31 48/55/44 32/35/30
f 34/37/32 50/57/46 49/56/45 33/36/31
f 35/38/33 51/58/47 50/57/46 34/37/32
f 36/40/34 52/60/48 51/59/47 35/39/33
f 37/41/5 53/61/5 52/60/48 36/40/34
f 38/42/35 54/62/49 53/61/5 37/41/5
f 39/43/36 55/63/50 54/62/49 38/42/35
f 40/45/37 56/65/51 55/64/50 39/44/36
f 41/46/38 57/66/52 56/65/51 40/45/37
f 42/47/39 58/67/53 57/66/52 41/46/38
f 43/48/40 59/68/54 58/67/53 42/47/39
f 44/50/41 60/70/55 59/69/54 43/49/40
f 45/51/13 61/71/13 60/70/55 44/50/41
f 46/52/42 62/72/56 61/71/13 45/51/13
f 47/53/43 63/73/57 62/72/56 46/52/42
f 48/55/44 64/75/58 63/74/57 47/54/43
f 33/36/31 49/56/45 64/75/58 48/55/44
f 50/77/46 66/87/60 65/86/59 49/76/45
f 51/78/47 67/88/61 66/87/60 50/77/46
f 52/60/48 68/90/62 67/89/61 51/59/47
f 53/61/5 69/91/5 68/90/62 52/60/48
f 54/62/49 70/92/63 69/91/5 53/61/5
f 55/63/50 71/93/64 70/92/63 54/62/49
f 56/80/51 72/95/65 71/94/64 55/79/50
f 57/81/52 73/96/66 72/95/65 56/80/51
f 58/82/53 74/97/67 73/96/66 57/81/52
f 59/83/54 75/98/68 74/97/67 58/82/53
f 60/70/55 76/100/69 75/99/68 59/69/54
f 61/71/13 77/101/13 76/100/69 60/70/55
f 62/72/56 78/102/70 77/101/13 61/71/13
f 63/73/57 79/103/71 78/102/70 62/72/56
f 64/85/58 80/105/72 79/104/71 63/84/57
f 49/76/45 65/86/59 80/105/72 64/85/58
f 66/87/60 82/107/74 81/106/73 65/86/59
f 67/88/61 83/108/75 82/107/74 66/87/60
f 68/90/62 84/110/76 83/109/75 67/89/61
f 69/91/5 85/111/5 84/110/76 68/90/62
f 70/92/63 86/112/77 85/111/5 69/91/5
f 71/93/64 87/113/78 86/112/77 70/92/63
f 72/95/65 88/115/79 87/114/78 71/94/64
f 73/96/66 89/116/80 88/115/79 72/95/65
f 74/97/67 90/117/81 89/116/80 73/96/66
f 75/98/68 91/118/82 90/117/81 74/97/67
f 76/100/69 92/120/83 91/119/82 75/99/68
f 77/101/13 93/121/13 92/120/83 76/100/69
f 78/102/70 94/122/84 93/121/13 77/101/13
f 79/103/71 95/123/85 94/122/84 78/102/70
f 80/105/72 96/125/86 95/124/85 79/104/71
f 65/86/59 81/106/73 96/125/86 80/105/72
f 82/107/74 98/2/88 97/1/87 81/106/73
f 83/108/75 99/3/89 98/2/88 82/107/74
f 84/110/76 100/127/90 99/126/89 83/109/75
f 85/111/5 101/128/5 100/127/90 84/110/76
f 86/112/77 102/129/91 101/128/5 85/111/5
f 87/113/78 103/130/92 102/129/91 86/112/77
f 88/115/79 104/2/93 103/3/92 87/114/78
f 89/116/80 105/1/94 104/2/93 88/115/79
f 90/117/81 106/9/95 105/1/94 89/116/80
f 91/118/82 107/10/96 106/9/95 90/117/81
f 92/120/83 108/129/97 107/130/96 91/119/82
f 93/121/13 109/128/13 108/129/97 92/120/83
f 94/122/84 110/127/98 109/128/13 93/121/13
f 95/123/85 111/126/99 110/127/98 94/122/84
f 96/125/86 112/9/100 111/10/99 95/124/85
f 81/106/73 97/1/87 112/9/100 96/125/86
f 98/2/88 114/17/102 113/16/101 97/1/87
f 99/3/89 115/18/103 114/17/102 98/2/88
f 100/127/90 116/122/104 115/123/103 99/126/89
f 101/128/5 117/121/5 116/122/104 100/127/90
f 102/129/91 118/120/105 117/121/5 101/128/5
f 103/130/92 119/119/106 118/120/105 102/129/91
f 104/2/93 120/25/107 119/24/106 103/3/92
f 105/1/94 121/26/108 120/25/107 104/2/93
f 106/9/95 122/27/109 121/26/108 105/1/94
f 107/10/96 123/28/110 122/27/109 106/9/95
f 108/129/97 124/112/111 123/113/110 107/130/96
f 109/128/13 125/111/13 124/112/111 108/129/97
f 110/127/98 126/110/112 125/111/13 109/128/13
f 111/126/99 127/109/113 126/110/112 110/127/98
f 112/9/100 128/35/114 127/34/113 111/10/99
f 97/1/87 113/16/101 128/35/114 112/9/100
f 114/17/102 130/37/116 129/36/115 113/16/101
f 115/18/103 131/38/117 130/37/116 114/17/102
f 116/122/104 132/102/118 131/103/117 115/123/103
f 117/121/5 133/131/5 132/102/118 116/122/104
f 118/120/105 134/100/119 133/131/5 117/121/5
f 119/119/106 135/99/120 134/100/119 118/120/105
f 120/25/107 136/45/121 135/44/120 119/24/106
f 121/26/108 137/46/122 136/45/121 120/25/107
f 122/27/109 138/47/123 137/46/122 121/26/108
f 123/28/110 139/48/124 138/47/123 122/27/109
f 124/112/111 140/92/125 139/93/124 123/113/110
f 125/111/13 141/132/13 140/92/125 124/112/111
f 126/110/112 142/90/126 141/132/13 125/111/13
f 127/109/113 143/89/127 142/90/126 126/110/112
f 128/35/114 144/55/128 143/54/127 127/34/113
f 113/16/101 129/36/115 144/55/128 128/35/114
f 130/37/116 146/57/130 145/56/129 129/36/115
f 131/38/117 147/58/131 146/57/130 130/37/116
f 132/102/118 148/72/132 147/73/131 131/103/117
f 133/131/5 149/71/5 148/72/132 132/102/118
f 134/100/119 150/70/133 149/71/5 133/131/5
f 135/99/120 151/69/134 150/70/133 134/100/119
f 136/45/121 152/65/135 151/64/134 135/44/120
f 137/46/122 153/66/136 152/65/135 136/45/121
f 138/47/123 154/67/137 153/66/136 137/46/122
f 139/48/124 155/68/138 154/67/137 138/47/123
f 140/92/125 156/62/139 155/63/138 139/93/124
f 141/132/13 157/61/13 156/62/139 140/92/125
f 142/90/126 158/60/140 157/61/13 141/132/13
f 143/89/127 159/59/141 158/60/140 142/90/126
f 144/55/128 160/75/142 159/74/141 143/54/127
f 129/36/115 145/56/129 160/75/142 144/55/128
f 146/77/130 162/87/144 161/133/143 145/76/129
f 147/78/131 163/88/145 162/87/144 146/77/130
f 148/72/132 164/52/146 163/53/145 147/73/131
f 149/71/5 165/51/5 164/52/146 148/72/132
f 150/70/133 166/50/147 165/51/5 149/71/5
f 151/69/134 167/49/148 166/50/147 150/70/133
f 152/80/135 168/95/149 167/94/148 151/79/134
f 153/81/136 169/134/150 168/95/149 152/80/135
f 154/82/137 170/97/151 169/134/150 153/81/136
f 155/83/138 171/98/152 170/97/151 154/82/137
f 156/62/139 172/42/153 171/43/152 155/63/138
f 157/61/13 173/41/13 172/42/153 156/62/139
f 158/60/140 174/40/154 173/41/13 157/61/13
f 159/59/141 175/39/155 174/40/154 158/60/140
f 160/85/142 176/105/156 175/104/155 159/84/141
f 145/76/129 161/133/143 176/105/156 160/85/142
f 162/87/144 178/107/158 177/106/157 161/133/143
f 163/88/145 179/108/159 178/107/158 162/87/144
f 164/52/146 180/32/160 179/33/159 163/53/145
f 165/51/5 181/31/5 180/32/160 164/52/146
f 166/50/147 182/30/161 181/31/5 165/51/5
f 167/49/148 183/29/162 182/30/161 166/50/147
f 168/95/149 184/115/163 183/114/162 167/94/148
f 169/134/150 185/116/164 184/115/163 168/95/149
f 170/97/151 186/117/165 185/116/164 169/134/150
f 171/98/152 187/118/166 186/117/165 170/97/151
f 172/42/153 188/22/167 187/23/166 171/43/152
f 173/41/13 189/21/13 188/22/167 172/42/153
f 174/40/154 190/20/168 189/21/13 173/41/13
f 175/39/155 191/19/169 190/20/168 174/40/154
f 176/105/156 192/125/170 191/124/169 175/104/155
f 161/133/143 177/106/157 192/125/170 176/105/156
f 178/107/158 194/2/8 193/1/9 177/106/157
f 179/108/159 195/3/7 194/2/8 178/107/158
f 180/32/160 196/14/6 195/15/7 179/33/159
f 181/31/5 197/13/5 196/14/6 180/32/160
f 182/30/161 198/12/4 197/13/5 181/31/5
f 183/29/162 199/11/3 198/12/4 182/30/161
f 184/115/163 200/2/2 199/3/3 183/114/162
f 185/116/164 201/1/1 200/2/2 184/115/163
f 186/117/165 202/9/16 201/1/1 185/116/164
f 187/118/166 203/10/15 202/9/16 186/117/165
f 188/22/167 204/7/14 203/8/15 187/23/166
f 189/21/13 205/6/13 204/7/14 188/22/167
f 190/20/168 206/5/12 205/6/13 189/21/13
f 191/19/169 207/4/11 206/5/12 190/20/168
f 192/125/170 208/9/10 207/10/11 191/124/169
f 177/106/157 193/1/9 208/9/10 192/125/170
f 194/2/8 210/17/23 209/16/24 193/1/9
f 195/3/7 211/18/22 210/17/23 194/2/8
f 196/14/6 212/136/21 211/135/22 195/15/7
f 197/13/5 213/137/5 212/136/21 196/14/6
f 198/12/4 214/138/20 213/137/5 197/13/5
f 199/11/3 215/139/19 214/138/20 198/12/4
f 200/2/2 216/25/18 215/24/19 199/3/3
f 201/1/1 217/26/17 216/25/18 200/2/2
f 202/9/16 218/27/30 217/26/17 201/1/1
f 203/10/15 219/28/29 218/27/30 202/9/16
f 204/7/14 220/141/28 219/140/29 203/8/15
f 205/6/13 221/142/13 220/141/28 204/7/14
f 206/5/12 222/143/27 221/142/13 205/6/13
f 207/4/11 223/144/26 222/143/27 206/5/12
f 208/9/10 224/35/25 223/34/26 207/10/11
f 193/1/9 209/16/24 224/35/25 208/9/10
f 210/17/23 226/37/37 225/145/38 209/16/24
f 211/18/22 227/38/36 226/37/37 210/17/23
f 212/136/21 228/147/35 227/146/36 211/135/22
f 213/137/5 229/148/5 228/147/35 212/136/21
f 214/138/20 230/149/34 229/148/5 213/137/5
f 215/139/19 231/150/33 230/149/34 214/138/20
f 216/25/18 232/45/32 231/44/33 215/24/19
f 217/26/17 233/151/171 232/45/32 216/25/18
f 218/27/30 234/47/44 233/151/171 217/26/17
f 219/28/29 235/48/43 234/47/44 218/27/30
f 220/141/28 236/153/42 235/152/43 219/140/29
f 221/142/13 237/154/13 236/153/42 220/141/28
f 222/143/27 238/155/41 237/154/13 221/142/13
f 223/144/26 239/156/40 238/155/41 222/143/27
f 224/35/25 240/55/39 239/54/40 223/34/26
f 209/16/24 225/145/38 240/55/39 224/35/25
f 226/37/37 242/57/51 241/56/52 225/145/38
f 227/38/36 243/58/50 242/57/51 226/37/37
f 228/147/35 244/158/49 243/157/50 227/146/36
f 229/148/5 245/159/5 244/158/49 228/147/35
f 230/149/34 246/160/48 245/159/5 229/148/5
f 231/150/33 247/161/47 246/160/48 230/149/34
f 232/45/32 248/65/46 247/64/47 231/44/33
f 233/151/171 249/66/45 248/65/46 232/45/32
f 234/47/44 250/67/58 249/66/45 233/151/171
f 235/48/43 251/68/57 250/67/58 234/47/44
f 236/153/42 252/163/56 251/162/57 235/152/43
f 237/154/13 253/164/13 252/163/56 236/153/42
f 238/155/41 254/165/55 253/164/13 237/154/13
f 239/156/40 255/166/54 254/165/55 238/155/41
f 240/55/39 256/75/53 255/74/54 239/54/40
f 225/145/38 241/56/52 256/75/53 240/55/39
f 242/77/51 258/87/65 257/86/172 241/76/52
f 243/78/50 259/88/64 258/87/65 242/77/51
f 244/158/49 260/168/63 259/167/64 243/157/50
f 245/159/5 261/169/5 260/168/63 244/158/49
f 246/160/48 262/170/62 261/169/5 245/159/5
f 247/161/47 263/171/61 262/170/62 246/160/48
f 248/80/46 264/95/60 263/94/61 247/79/47
f 249/81/45 265/96/173 264/95/60 248/80/46
f 250/82/58 266/97/72 265/96/173 249/81/45
f 251/83/57 267/98/71 266/97/72 250/82/58
f 252/163/56 268/173/70 267/172/71 251/162/57
f 253/164/13 269/174/13 268/173/70 252/163/56
f 254/165/55 270/175/69 269/174/13 253/164/13
f 255/166/54 271/176/68 270/175/69 254/165/55
f 256/85/53 272/105/67 271/104/68 255/84/54
f 241/76/52 257/86/172 272/105/67 256/85/53
f 258/87/65 274/107/79 273/106/80 257/86/172
f 259/88/64 275/108/78 274/107/79 258/87/65
f 260/168/63 276/178/77 275/177/78 259/167/64
f 261/169/5 277/179/5 276/178/77 260/168/63
f 262/170/62 278/180/76 277/179/5 261/169/5
f 263/171/61 279/181/75 278/180/76 262/170/62
f 264/95/60 280/115/74 279/114/75 263/94/61
f 265/96/173 281/116/73 280/115/74 264/95/60
f 266/97/72 282/117/86 281/116/73 265/96/173
f 267/98/71 283/118/85 282/117/86 266/97/72
f 268/173/70 284/183/84 283/182/85 267/172/71
f 269/174/13 285/184/13 284/183/84 268/173/70
f 270/175/69 286/185/83 285/184/13 269/174/13
f 271/176/68 287/186/82 286/185/83 270/175/69
f 272/105/67 288/125/81 287/124/82 271/104/68
f 257/86/172 273/106/80 288/125/81 272/105/67
f 274/107/79 290/2/93 289/1/94 273/106/80
f 275/108/78 291/3/92 290/2/93 274/107/79
f 276/178/77 292/188/91 291/187/92 275/177/78
f 277/179/5 293/189/5 292/188/91 276/178/77
f 278/180/76 294/190/90 293/189/5 277/179/5
f 279/181/75 295/191/89 294/190/90 278/180/76
f 280/115/74 296/2/88 295/3/89 279/114/75
f 281/116/73 297/1/87 296/2/88 280/115/74
f 282/117/86 298/9/100 297/1/87 281/116/73
f 283/118/85 299/10/99 298/9/100 282/117/86
f 284/183/84 300/190/98 299/191/99 283/182/85
f 285/184/13 301/189/13 300/190/98 284/183/84
f 286/185/83 302/188/97 301/189/13 285/184/13
f 287/186/82 303/187/96 302/188/97 286/185/83
f 288/125/81 304/9/95 303/10/96 287/124/82
f 273/106/80 289/1/94 304/9/95 288/125/81
f 290/2/93 306/17/107 305/16/108 289/1/94
f 291/3/92 307/18/106 306/17/107 290/2/93
f 292/188/91 308/185/105 307/186/106 291/187/92
f 293/189/5 309/184/5 308/185/105 292/188/91
f 294/190/90 310/183/104 309/184/5 293/189/5
f 295/191/89 311/182/103 310/183/104 294/190/90
f 296/2/88 312/25/102 311/24/103 295/3/89
f 297/1/87 313/26/101 312/25/102 296/2/88
f 298/9/100 314/27/114 313/26/101 297/1/87
f 299/10/99 315/28/113 314/27/114 298/9/100
f 300/190/98 316/180/112 315/181/113 299/191/99
f 301/189/13 317/179/13 316/180/112 300/190/98
f 302/188/97 318/178/111 317/179/13 301/189/13
f 303/187/96 319/177/110 318/178/111 302/188/97
f 304/9/95 320/35/109 319/34/110 303/10/96
f 289/1/94 305/16/108 320/35/109 304/9/95
f 306/17/107 322/37/121 321/145/122 305/16/108
f 307/18/106 323/38/120 322/37/121 306/17/107
f 308/185/105 324/175/119 323/176/120 307/186/106
f 309/184/5 325/174/5 324/175/119 308/185/105
f 310/183/104 326/173/118 325/174/5 309/184/5
f 311/182/103 327/172/117 326/173/118 310/183/104
f 312/25/102 328/45/116 327/44/117 311/24/103
f 313/26/101 329/151/174 328/45/116 312/25/102
f 314/27/114 330/47/128 329/151/174 313/26/101
f 315/28/113 331/48/127 330/47/128 314/27/114
f 316/180/112 332/170/126 331/171/127 315/181/113
f 317/179/13 333/169/13 332/170/126 316/180/112
f 318/178/111 334/168/125 333/169/13 317/179/13
f 319/177/110 335/167/124 334/168/125 318/178/111
f 320/35/109 336/55/123 335/54/124 319/34/110
f 305/16/108 321/145/122 336/55/123 320/35/109
f 322/37/121 338/57/135 337/56/136 321/145/122
f 323/38/120 339/58/134 338/57/135 322/37/121
f 324/175/119 340/165/133 339/166/134 323/176/120
f 325/174/5 341/164/5 340/165/133 324/175/119
f 326/173/118 342/163/132 341/164/5 325/174/5
f 327/172/117 343/162/131 342/163/132 326/173/118
f 328/45/116 344/65/130 343/64/131 327/44/117
f 329/151/174 345/66/129 344/65/130 328/45/116
f 330/47/128 346/67/142 345/66/129 329/151/174
f 331/48/127 347/68/141 346/67/142 330/47/128
f 332/170/126 348/160/140 347/161/141 331/171/127
f 333/169/13 349/159/13 348/160/140 332/170/126
f 334/168/125 350/158/139 349/159/13 333/169/13
f 335/167/124 351/157/138 350/158/139 334/168/125
f 336/55/123 352/75/137 351/74/138 335/54/124
f 321/145/122 337/56/136 352/75/137 336/55/123
f 338/77/135 354/87/149 353/133/150 337/76/136
f 339/78/134 355/88/148 354/87/149 338/77/135
f 340/165/133 356/155/147 355/156/148 339/166/134
f 341/164/5 357/192/5 356/155/147 340/165/133
f 342/163/132 358/153/146 357/192/5 341/164/5
f 343/162/131 359/152/145 358/153/146 342/163/132
f 344/80/130 360/95/144 359/94/145 343/79/131
f 345/81/129 361/134/175 360/95/144 344/80/130
f 346/82/142 362/97/156 361/134/175 345/81/129
f 347/83/141 363/98/155 362/97/156 346/82/142
f 348/160/140 364/149/154 363/150/155 347/161/141
f 349/159/13 365/193/13 364/149/154 348/160/140
f 350/158/139 366/147/153 365/193/13 349/159/13
f 351/157/138 367/146/152 366/147/153 350/158/139
f 352/85/137 368/105/151 367/104/152 351/84/138
f 337/76/136 353/133/150 368/105/151 352/85/137
f 354/87/149 370/107/163 369/106/164 353/133/150
f 355/88/148 371/108/162 370/107/163 354/87/149
f 356/155/147 372/143/161 371/144/162 355/156/148
f 357/192/5 373/142/5 372/143/161 356/155/147
f 358/153/146 374/141/160 373/142/5 357/192/5
f 359/152/145 375/140/159 374/141/160 358/153/146
f 360/95/144 376/115/158 375/114/159 359/94/145
f 361/134/175 377/116/157 376/115/158 360/95/144
f 362/97/156 378/117/170 377/116/157 361/134/175
f 363/98/155 379/118/169 378/117/170 362/97/156
f 364/149/154 380/138/168 379/139/169 363/150/155
f 365/193/13 381/137/13 380/138/168 364/149/154
f 366/147/153 382/136/167 381/137/13 365/193/13
f 367/146/152 383/135/166 382/136/167 366/147/153
f 368/105/151 384/125/165 383/124/166 367/104/152
f 353/133/150 369/106/164 384/125/165 368/105/151
f 370/107/163 2/2/2 1/1/1 369/106/164
f 371/108/162 3/3/3 2/2/2 370/107/163
f 372/143/161 4/5/4 3/4/3 371/144/162
f 373/142/5 5/6/5 4/5/4 372/143/161
f 374/141/160 6/7/6 5/6/5 373/142/5
f 375/140/159 7/8/7 6/7/6 374/141/160
f 376/115/158 8/2/8 7/3/7 375/114/159
f 377/116/157 9/1/9 8/2/8 376/115/158
f 378/117/170 10/9/10 9/1/9 377/116/157
f 379/118/169 11/10/11 10/9/10 378/117/170
f 380/138/168 12/12/12 11/11/11 379/139/169
f 381/137/13 13/13/13 12/12/12 380/138/168
f 382/136/167 14/14/14 13/13/13 381/137/13
f 383/135/166 15/15/15 14/14/14 382/136/167
f 384/125/165 16/9/16 15/10/15 383/124/166
f 369/106/164 1/1/1 16/9/16 384/125/165

